<svg version="1.1" id="BJye_jO2z" xmlns="http://www.w3.org/2000/svg" xmlns:xlink="http://www.w3.org/1999/xlink" x="0px" y="0px" viewBox="0 0 600 600" style="enable-background:new 0 0 600 600;" xml:space="preserve"><style>@-webkit-keyframes rJ-ygui_hf_ByAV0idnf_Animation{0%{-webkit-transform: rotate(5deg);transform: rotate(5deg);}25%{-webkit-transform: rotate(0deg);transform: rotate(0deg);}50%{-webkit-transform: rotate(-5deg);transform: rotate(-5deg);}75%{-webkit-transform: rotate(0deg);transform: rotate(0deg);}100%{-webkit-transform: rotate(5deg);transform: rotate(5deg);}}@keyframes rJ-ygui_hf_ByAV0idnf_Animation{0%{-webkit-transform: rotate(5deg);transform: rotate(5deg);}25%{-webkit-transform: rotate(0deg);transform: rotate(0deg);}50%{-webkit-transform: rotate(-5deg);transform: rotate(-5deg);}75%{-webkit-transform: rotate(0deg);transform: rotate(0deg);}100%{-webkit-transform: rotate(5deg);transform: rotate(5deg);}}@-webkit-keyframes rJ-ygui_hf_BJUu9jd2z_Animation{0%{-webkit-transform: translate(-5px, -10px);transform: translate(-5px, -10px);}25%{-webkit-transform: translate(0px, 0px);transform: translate(0px, 0px);}50%{-webkit-transform: translate(-5px, -10px);transform: translate(-5px, -10px);}75%{-webkit-transform: translate(0px, 0px);transform: translate(0px, 0px);}100%{-webkit-transform: translate(-5px, -10px);transform: translate(-5px, -10px);}}@keyframes rJ-ygui_hf_BJUu9jd2z_Animation{0%{-webkit-transform: translate(-5px, -10px);transform: translate(-5px, -10px);}25%{-webkit-transform: translate(0px, 0px);transform: translate(0px, 0px);}50%{-webkit-transform: translate(-5px, -10px);transform: translate(-5px, -10px);}75%{-webkit-transform: translate(0px, 0px);transform: translate(0px, 0px);}100%{-webkit-transform: translate(-5px, -10px);transform: translate(-5px, -10px);}}@-webkit-keyframes rJ8fklujOhz_SkhkYsuhf_Animation{0%{-webkit-transform: translate(6px, 5px);transform: translate(6px, 5px);}25%{-webkit-transform: translate(0px, 0px);transform: translate(0px, 0px);}50%{-webkit-transform: translate(-10px, 5px);transform: translate(-10px, 5px);}75%{-webkit-transform: translate(0px, 0px);transform: translate(0px, 0px);}100%{-webkit-transform: translate(6px, 5px);transform: translate(6px, 5px);}}@keyframes rJ8fklujOhz_SkhkYsuhf_Animation{0%{-webkit-transform: translate(6px, 5px);transform: translate(6px, 5px);}25%{-webkit-transform: translate(0px, 0px);transform: translate(0px, 0px);}50%{-webkit-transform: translate(-10px, 5px);transform: translate(-10px, 5px);}75%{-webkit-transform: translate(0px, 0px);transform: translate(0px, 0px);}100%{-webkit-transform: translate(6px, 5px);transform: translate(6px, 5px);}}@-webkit-keyframes S1wgyx_sOhM_Sylbusu3z_Animation{0%{-webkit-transform: translate(10px, 10px);transform: translate(10px, 10px);}25%{-webkit-transform: translate(0px, 0px);transform: translate(0px, 0px);}50%{-webkit-transform: translate(-10px, 10px);transform: translate(-10px, 10px);}75%{-webkit-transform: translate(0px, 0px);transform: translate(0px, 0px);}100%{-webkit-transform: translate(10px, 10px);transform: translate(10px, 10px);}}@keyframes S1wgyx_sOhM_Sylbusu3z_Animation{0%{-webkit-transform: translate(10px, 10px);transform: translate(10px, 10px);}25%{-webkit-transform: translate(0px, 0px);transform: translate(0px, 0px);}50%{-webkit-transform: translate(-10px, 10px);transform: translate(-10px, 10px);}75%{-webkit-transform: translate(0px, 0px);transform: translate(0px, 0px);}100%{-webkit-transform: translate(10px, 10px);transform: translate(10px, 10px);}}#BJye_jO2z *{-webkit-animation-duration: 12s;animation-duration: 12s;-webkit-animation-iteration-count: infinite;animation-iteration-count: infinite;-webkit-animation-timing-function: cubic-bezier(0, 0, 1, 1);animation-timing-function: cubic-bezier(0, 0, 1, 1);}#ByMJxuidhf{fill: #A899B5;}#HkXyxOjO3z{fill: #ECE5F2;}#rk4Jxdsunz{fill: #79F7FF;}#HyUJgOou2z{fill: #6FE6FF;}#H1vkx_i_2M{fill: #F4DE28;}#SJO1g_odhf{fill: #31C7FF;}#Hy5kxusu2f{fill: #31C7FF;}#S1oJe_odhG{fill: #31C7FF;}#ry3yguoO2M{fill: #31C7FF;}#Bkaygus_nz{fill: #31C7FF;}#ByA1gdo_hM{fill: #EAFF34;-webkit-transform:  matrix(0.4792, -0.8777, 0.8777, 0.4792, 98.6776, 523.047);transform:  matrix(0.4792, -0.8777, 0.8777, 0.4792, 98.6776, 523.047);}#B1ygygujOnM{fill: #CDBFD9;-webkit-transform:  matrix(0.4792, -0.8777, 0.8777, 0.4792, -112.3826, 584.1708);transform:  matrix(0.4792, -0.8777, 0.8777, 0.4792, -112.3826, 584.1708);}#r1bxyluid2f{opacity: 0.2;fill: #FFFFFF;}#rkGxJxuid3G{opacity: 0.2;fill: #FFFFFF;}#r1Nl1g_o_2G{fill: #11C32F;}#HJSxJgdjd3M{fill: #1AE93D;}#SyIg1ldo_nG{fill: #CDBFD9;}#BkKgyeuiO2G{fill: url(#XMLID_2_);}#r19lJldouhz{fill: url(#XMLID_3_);}#H1sgylOidhz{fill: url(#XMLID_4_);}#HJhgyxujd3M{fill: url(#XMLID_5_);}#S1axygusdhf{fill: #4DDBEA;}#ByAg1x_sd3z{-webkit-mask: url(#XMLID_7_);mask: url(#XMLID_7_);fill: #46C1CE;}#Bk1WJldod2z{fill: #4DDBEA;}#rJeWyxdod3M{-webkit-mask: url(#XMLID_8_);mask: url(#XMLID_8_);fill: #46C1CE;}#r1W-JxujO3M{fill: url(#XMLID_9_);}#BkG-Jgujdnf{fill: #5BBDD3;}#SJXW1lOiOnf{fill: #5BBDD3;}#HJ4ZklOsu3G{fill: #5BBDD3;}#H1SbyxOo_3f{fill: #5BBDD3;}#S1Ibyeuju2z{fill: url(#helmet_1_);}#r1vZkx_s_3f{fill: #E1B494;}#B1u-kldod2M{fill: #FFCFB0;}#BkF-Jxus_nz{fill: url(#SVGID_1_);}#rJcZkeOsO2G{fill: #C46921;}#B1oZkedsunf{fill: #253544;}#By2bylujO3G{fill: #30455E;}#BJTbJldsd2G{fill: #CC5E15;}#HyRZ1luju2M{fill: #E6771C;}#rJkfJx_s_hz{display: none;-webkit-mask: url(#XMLID_10_);mask: url(#XMLID_10_);fill: url(#XMLID_11_);}#Skxf1gdid2M{opacity: 0.5;fill: #FFFFFF;}#rybfJgdiO2z{fill: #46C1CE;}#SyGfyl_jdnz{fill: #46C1CE;}#SyQfyedsOnz{opacity: 0.2;fill: #0C7B87;}#rkNGylOjOhG{opacity: 0.2;fill: #FFFFFF;}#S1rfyedjunG{opacity: 0.2;fill: #FFFFFF;}#rJvGJxuj_nG{fill: url(#hat_2_);}#SyOzJxOid2z{fill: #F22A67;}#B1FGkedjuhf{fill: #F22A67;}#ry5MJldo_hz{fill: #F6B3C4;}#S1wgyx_sOhM_Sylbusu3z{-webkit-animation-name: S1wgyx_sOhM_Sylbusu3z_Animation;animation-name: S1wgyx_sOhM_Sylbusu3z_Animation;-webkit-transform-origin: 50% 50%;transform-origin: 50% 50%;transform-box: fill-box;-webkit-transform: translate(10px, 10px);transform: translate(10px, 10px);}#rJ8fklujOhz_SkhkYsuhf{-webkit-animation-name: rJ8fklujOhz_SkhkYsuhf_Animation;animation-name: rJ8fklujOhz_SkhkYsuhf_Animation;-webkit-transform-origin: 50% 50%;transform-origin: 50% 50%;transform-box: fill-box;-webkit-transform: translate(6px, 5px);transform: translate(6px, 5px);}#rJ-ygui_hf_BJUu9jd2z{-webkit-animation-name: rJ-ygui_hf_BJUu9jd2z_Animation;animation-name: rJ-ygui_hf_BJUu9jd2z_Animation;-webkit-transform-origin: 50% 50%;transform-origin: 50% 50%;transform-box: fill-box;-webkit-transform: translate(-5px, -10px);transform: translate(-5px, -10px);}#rJ-ygui_hf_ByAV0idnf{-webkit-transform-origin: 50% 50%;transform-origin: 50% 50%;transform-box: fill-box;-webkit-transform: rotate(5deg);transform: rotate(5deg);-webkit-animation-name: rJ-ygui_hf_ByAV0idnf_Animation;animation-name: rJ-ygui_hf_ByAV0idnf_Animation;}</style>

<g id="S1gylOsO2G">
	<g id="rJ-ygui_hf_BJUu9jd2z" data-animator-group="true" data-animator-type="0"><g id="rJ-ygui_hf_ByAV0idnf" data-animator-group="true" data-animator-type="1"><g id="rJ-ygui_hf">
		<path d="M500.8,424.1l-122.1-21.7c-6.3-1.5-7.3-3.7-11.3-9.3c-1.5-2.2-4.7-6.6-7-10.1l55.4-243.1&#10;&#9;&#9;&#9;c1.8-9.3,11.3-15.5,21.2-13.8l120,15.2c0.4,0.6,5.7,7.8,7.4,10.2c1.7,2.4,5.9,8.3,4.6,15.2l-46.8,243.6&#10;&#9;&#9;&#9;C520.2,419.6,510.6,425.9,500.8,424.1z" id="ByMJxuidhf"/>
		<path d="M493.7,413l-121.8-21.4c-8.6-1.5-14.4-9.4-12.8-17.5l47.7-248.3c1.6-8.1,9.9-13.6,18.5-12.1l120.8,20.9&#10;&#9;&#9;&#9;c8.6,1.5,15.3,9.9,13.8,18.1L512.2,401C510.6,409.1,502.3,414.6,493.7,413z" id="HkXyxOjO3z"/>
		<polygon points="515.5,383.6 362.5,356.7 404.9,135.6 558,162.5 &#9;&#9;" id="rk4Jxdsunz"/>
		<g id="BJrkx_oO3z">
			<path d="M523.7,245l-119.3-20.4c-6.4-1.1-11.6-7-10.7-12l11.6-58c1-5.1,7.7-8.7,14.1-7.6l119.4,21&#10;&#9;&#9;&#9;&#9;c6.4,1.1,10.9,6.2,9.9,11.2l-11.6,58.6C536.2,242.8,530.2,246.1,523.7,245z" id="HyUJgOou2z"/>
			<path d="M506.2,335.9l-41.6-7.7c-7-0.4-11.5-5.8-10.5-11.3l11.8-63c1-5.5,6.9-8.9,13.5-7.8l42.4,6.7&#10;&#9;&#9;&#9;&#9;c6.6,1.1,11.1,6.6,10,12.1L520,328C519.4,331.3,513.6,337.2,506.2,335.9z" id="H1vkx_i_2M"/>
			<path d="M429,322.2l-41.6-7.7c-7-0.4-11.5-5.8-10.5-11.3l11.8-63c1-5.5,6.9-8.9,13.5-7.8l42.4,6.7&#10;&#9;&#9;&#9;&#9;c6.6,1.1,11.1,6.6,10,12.1l-11.8,63C442.2,317.6,436.4,323.5,429,322.2z" id="SJO1g_odhf"/>
			<g id="rkKkl_iOhf">
				<path d="M387.7,354.1l-12.3-2.2c-4.2-0.8-7-4.4-6.2-8l3.4-17c0.7-3.7,4.7-6,8.9-5.3l12.3,2.2c4.2,0.8,7,4.4,6.2,8&#10;&#9;&#9;&#9;&#9;&#9;l-3.4,17C395.9,352.4,391.9,354.8,387.7,354.1z" id="Hy5kxusu2f"/>
				<path d="M425.6,360.4l-12.3-2.2c-4.2-0.8-7-4.4-6.2-8l3.4-17c0.7-3.7,4.7-6,8.9-5.3l12.3,2.2c4.2,0.8,7,4.4,6.2,8&#10;&#9;&#9;&#9;&#9;&#9;l-3.4,17C433.8,358.8,429.8,361.2,425.6,360.4z" id="S1oJe_odhG"/>
				<path d="M464.3,367.9l-12.3-2.2c-4.2-0.8-7-4.4-6.2-8l3.4-17c0.7-3.7,4.7-6,8.9-5.3l12.3,2.2c4.2,0.8,7,4.4,6.2,8&#10;&#9;&#9;&#9;&#9;&#9;l-3.4,17C472.4,366.3,468.4,368.6,464.3,367.9z" id="ry3yguoO2M"/>
				<path d="M503.2,374.9l-12.3-2.2c-4.2-0.8-7-4.4-6.2-8l3.4-17c0.7-3.7,4.7-6,8.9-5.3l12.3,2.2c4.2,0.8,7,4.4,6.2,8&#10;&#9;&#9;&#9;&#9;&#9;l-3.4,17C511.3,373.3,507.3,375.6,503.2,374.9z" id="Bkaygus_nz"/>
			</g>
			
				<ellipse id="ByA1gdo_hM" cx="490.1" cy="178.4" rx="9.8" ry="9.6"/>
		</g>
		
			<ellipse id="B1ygygujOnM" cx="436.1" cy="386.8" rx="9.8" ry="9.6"/>
		<g id="ryxxyeui_2z">
			<path d="M554.5,180.5L362.8,354.8l7.3-38l189.8-168.4c0,0,0.2,1.8,0.2,2.5C560.1,152.8,554.5,180.5,554.5,180.5z" id="r1bxyluid2f"/>
			<path d="M543.9,134.9L376.1,284.2l15.3-77.6l92.8-82.3l55.1,9.8C540.2,134.3,542.6,134.7,543.9,134.9z" id="rkGxJxuid3G"/>
		</g>
		<g id="rJ7lkxus_3G">
			<path d="M538.7,232c-0.3-8.8-15.1-31.9-34.6-35.2c-20.1-3.5-57.7,21.1-60.3,34.5c4.9,0.5,66.1,11.6,79.3,13.8&#10;&#9;&#9;&#9;&#9;c1.2,0.2,1.9,0.2,2.3,0.3c2.1,0,4-0.4,5.5-1c3.6-1.3,5.8-3.7,6.7-6.3C538.2,235.1,538.2,234.9,538.7,232z" id="r1Nl1g_o_2G"/>
			<path d="M394.9,207.1c3.6-8.2,27.2-24.2,46.7-20.8c20.1,3.5,45,38.5,42.4,52c-4.8-1.2-66.2-11.4-79.3-13.7&#10;&#9;&#9;&#9;&#9;c-1.2-0.2-1.9-0.4-2.3-0.5c-2-0.7-3.6-1.7-4.8-2.8c-2.9-2.5-4.1-5.4-3.9-8.2C394.3,210.2,394.3,209.9,394.9,207.1z" id="HJSxJgdjd3M"/>
		</g>
		<path d="M495.7,140.3l-25-4.3c-1.3-0.2-2.1-1.4-1.9-2.6l0,0c0.2-1.2,1.4-2,2.7-1.8l25,4.3c1.3,0.2,2.1,1.4,1.9,2.6&#10;&#9;&#9;&#9;l0,0C498.2,139.7,497,140.5,495.7,140.3z" id="SyIg1ldo_nG"/>
	</g></g></g>
	<g id="S1wgyx_sOhM_Sylbusu3z" data-animator-group="true" data-animator-type="0"><g id="S1wgyx_sOhM">
		<g id="H1dg1x_jd2G">
			<linearGradient id="XMLID_2_" gradientUnits="userSpaceOnUse" x1="206.5562" y1="414.7946" x2="286.2675" y2="368.7733">
				<stop offset="0" style="stop-color:#52DEF0"/>
				<stop offset="0" style="stop-color:#4AC5E5"/>
				<stop offset="1" style="stop-color:#4AE7F4"/>
				<stop offset="1" style="stop-color:#50E0ED"/>
				<stop offset="1" style="stop-color:#5BD4E1"/>
			</linearGradient>
			<path id="BkKgyeuiO2G" d="M207.1,384.2c0,0,32.3,4,44.3,2.7c15.5-1.6,23.5-15,34.8-12.8c7.8,1.5,9.5,13.8,4.7,20.5&#10;&#9;&#9;&#9;&#9;c-3.8,5.4-20.7,14.6-39.8,17c-12.2,1.5-48.4-3.7-48.4-3.7L207.1,384.2z"/>
			<linearGradient id="XMLID_3_" gradientUnits="userSpaceOnUse" x1="205.7409" y1="449.155" x2="264.0007" y2="449.155">
				<stop offset="0" style="stop-color:#52DEF0"/>
				<stop offset="0" style="stop-color:#4AC5E5"/>
				<stop offset="1" style="stop-color:#4AE7F4"/>
				<stop offset="1" style="stop-color:#50E0ED"/>
				<stop offset="1" style="stop-color:#5BD4E1"/>
			</linearGradient>
			<path id="r19lJldouhz" d="M224.9,411.1c0,0,10.5,7.1,12.7,8.5c7.6,4.6,12.4,10.9,18,22.5c8.3,17.3,14.5,41.7-2.2,44.9&#10;&#9;&#9;&#9;&#9;c-13.4,2.6-12.7-15.1-21.1-36.7c-3.9-10.1-26.7-15.3-26.7-15.3L224.9,411.1z"/>
			
				<linearGradient id="XMLID_4_" gradientUnits="userSpaceOnUse" x1="871.3785" y1="407.3327" x2="967.2916" y2="407.3327" gradientTransform="matrix(-1 0 0 1 1105.5945 0)">
				<stop offset="0" style="stop-color:#60D3E7"/>
				<stop offset="0.1876" style="stop-color:#57B5CC"/>
				<stop offset="0.3925" style="stop-color:#4F98B3"/>
				<stop offset="1" style="stop-color:#4F97B2"/>
			</linearGradient>
			<path id="H1sgylOidhz" d="M220.6,359.6c0,0,13.7,77,13.6,79.6c-0.1,2.6-0.7,4.7-4.4,5.7c-3.7,1-72.9,10.1-72.9,10.1&#10;&#9;&#9;&#9;&#9;s-6,1.5-7.1-7.1c-1.1-8.6-11.5-77.4-11.5-77.4L220.6,359.6z"/>
			
				<linearGradient id="XMLID_5_" gradientUnits="userSpaceOnUse" x1="871.3793" y1="419.5768" x2="943.0534" y2="419.5768" gradientTransform="matrix(-1 0 0 1 1105.5945 0)">
				<stop offset="0" style="stop-color:#38E5F7"/>
				<stop offset="0.5243" style="stop-color:#4DDBEA"/>
				<stop offset="1" style="stop-color:#5BD4E1"/>
				<stop offset="1" style="stop-color:#5BD4E1"/>
				<stop offset="1" style="stop-color:#5AD4E1"/>
				<stop offset="1" style="stop-color:#5BD4E1"/>
				<stop offset="1" style="stop-color:#5BD4E1"/>
			</linearGradient>
			<path id="HJhgyxujd3M" d="M162.5,400.3c0.6,3.1,7.5,43.6,7.5,43.6s1.3,3.1,3.3,4.2c1,0.5,54.5-7.8,60.8-8.8l-8.1-48&#10;&#9;&#9;&#9;&#9;C226.2,391.2,163.3,400.1,162.5,400.3z"/>
			<path id="S1axygusdhf" d="M154.1,401.2c1.2,7.4-8.2,14.8-11.3,16c-5.7,2.3-14.7,4.1-19.3,11.8&#10;&#9;&#9;&#9;&#9;c-4.8,8,2.7,22.7-14.3,24.7c-14.9,1.8-19.2-27.8-0.3-44.4c15.9-14,30.3-17.4,30.3-17.4S153.1,394.7,154.1,401.2z"/>
			<defs>
				<filter id="Adobe_OpacityMaskFilter" filterUnits="userSpaceOnUse" x="128.6" y="380.5" width="31.2" height="39.4">
					<feColorMatrix type="matrix" values="1 0 0 0 0  0 1 0 0 0  0 0 1 0 0  0 0 0 1 0"/>
				</filter>
			</defs>
			<mask maskUnits="userSpaceOnUse" x="128.6" y="380.5" width="31.2" height="39.4" id="XMLID_7_">
				<g id="XMLID_26_" class="st16">
					<path id="XMLID_28_" class="st17" d="M157,405.1c1.2,7.4-4.1,11.6-4.1,11.6s-21.3,0-25.1,8.5c-3.8,8.5,4,18.2-7.7,22.2&#10;&#9;&#9;&#9;&#9;&#9;&#9;c-11.7,3.9-17.9-22.4-3.5-37.9c14.4-15.5,33.7-11.7,33.7-11.7S156,398.7,157,405.1z"/>
					<path id="XMLID_27_" class="st18" d="M155.5,401.1c1,4-0.7,8.7-2.7,10.7c-2.4,2.4-5.5,3.6-7.6,4.6c-5.4,2.5-12.8,3.1-15.5,9.4&#10;&#9;&#9;&#9;&#9;&#9;&#9;c-3.8,8.5,2.8,19.7-9.5,21.7c-14.8,2.4-20-27.4-5.6-42.9c16.9-11,22.2-12.8,25.2-13.4c1.3-0.3,4-0.2,5.1,0&#10;&#9;&#9;&#9;&#9;&#9;&#9;C151.8,392.2,154.1,395.4,155.5,401.1z"/>
				</g>
			</mask>
			<path id="ByAg1x_sd3z" d="M128.6,395.9c0,0,12.9-0.8,14.7,9.5c1.7,9.6-5,14.5-5,14.5l21.5-4.7l-7.3-34.8L128.6,395.9z&#10;&#9;&#9;&#9;&#9;"/>
			<path id="Bk1WJldod2z" d="M156.4,501.6c10.1,0.9,16.4-10.6,10.5-17.5c-7.3-8.5-9.7-12.8-6.6-20.9&#10;&#9;&#9;&#9;&#9;c3.3-8.8,8.3-22.2,4.9-26.2c-3.1-3.6-17.4-7.3-20.7-1.9c-3.1,5.1-8.5,17-10.1,26.5c-1.4,8.8,0.2,19.7,4.5,27.2&#10;&#9;&#9;&#9;&#9;C141.6,493.4,145.6,500.5,156.4,501.6z"/>
			<defs>
				<filter id="Adobe_OpacityMaskFilter_1_" filterUnits="userSpaceOnUse" x="140.6" y="429" width="29.7" height="29.2">
					<feColorMatrix type="matrix" values="1 0 0 0 0  0 1 0 0 0  0 0 1 0 0  0 0 0 1 0"/>
				</filter>
			</defs>
			<mask maskUnits="userSpaceOnUse" x="140.6" y="429" width="29.7" height="29.2" id="XMLID_8_">
				<g id="XMLID_15_" class="st20">
					<path id="XMLID_23_" class="st18" d="M162.2,492.8c9.8-2.4,5-12.2,3.4-15.5c-1.7-3.3-5.7-15.1-2.4-21.4&#10;&#9;&#9;&#9;&#9;&#9;&#9;c3.7-7.2,5.5-19.3-1.4-24c-3.9-2.7-12-3.3-16.1,1c-4.1,4.3-10.3,22-8.9,27.8c1.4,5.8,9.8,24.8,9.8,24.8&#10;&#9;&#9;&#9;&#9;&#9;&#9;S150.3,495.7,162.2,492.8z"/>
				</g>
			</mask>
			<path id="rJeWyxdod3M" d="M140.6,442.4c0,0,5.8-4.7,14.3,0.7c8.5,5.4,7.2,15.2,7.2,15.2l8.2-18l-9.6-10.6l-18.8-0.6&#10;&#9;&#9;&#9;&#9;L140.6,442.4z"/>
			
				<linearGradient id="XMLID_9_" gradientUnits="userSpaceOnUse" x1="871.3793" y1="419.5673" x2="943.0534" y2="419.5673" gradientTransform="matrix(-1 0 0 1 1105.5945 0)">
				<stop offset="0" style="stop-color:#38E5F7"/>
				<stop offset="0.5243" style="stop-color:#4DDBEA"/>
				<stop offset="1" style="stop-color:#5BD4E1"/>
				<stop offset="1" style="stop-color:#5BD4E1"/>
				<stop offset="1" style="stop-color:#5AD4E1"/>
				<stop offset="1" style="stop-color:#5BD4E1"/>
				<stop offset="1" style="stop-color:#5BD4E1"/>
			</linearGradient>
			<path id="r1W-JxujO3M" d="M162.5,400.3c0.6,3.1,7.5,43.6,7.5,43.6s1,4.3,3.3,4.2c4.4-0.2,54.5-7.8,60.8-8.8l-8.1-48&#10;&#9;&#9;&#9;&#9;C226.2,391.2,163.3,400.1,162.5,400.3z"/>
		</g>
		<circle id="BkG-Jgujdnf" cx="266" cy="111.1" r="7.5"/>
		<polygon id="SJXW1lOiOnf" points="235.4,181.7 265.3,116.1 262.8,114.5 233.6,178.4 &#9;&#9;"/>
		<circle id="HJ4ZklOsu3G" cx="46.5" cy="138" r="7.5"/>
		<polygon id="H1SbyxOo_3f" points="94.1,198.4 50.5,141.1 47.9,142.5 90.3,198.5 &#9;&#9;"/>
		
			<linearGradient id="helmet_1_" gradientUnits="userSpaceOnUse" x1="750.7057" y1="1199.812" x2="985.6449" y2="1199.812" gradientTransform="matrix(0.7424 -0.67 -0.67 -0.7424 332.6854 1743.6372)">
			<stop offset="0" style="stop-color:#11B3F2"/>
			<stop offset="0.2618" style="stop-color:#15BCF4"/>
			<stop offset="0.6955" style="stop-color:#1FD6FA"/>
			<stop offset="0.9944" style="stop-color:#27EBFF"/>
		</linearGradient>
		<circle id="S1Ibyeuju2z" cx="173.4" cy="271.3" r="117.5"/>
		<polygon id="r1vZkx_s_3f" points="106.6,231.6 122.4,346.2 145.7,343.8 127.3,228.3 &#9;&#9;"/>
		<polygon id="B1u-kldod2M" points="229.7,213.9 239.7,296.1 137,308.1 127.3,228.3 &#9;&#9;"/>
		<linearGradient id="SVGID_1_" gradientUnits="userSpaceOnUse" x1="138.8224" y1="343.8882" x2="138.8224" y2="385.8317">
			<stop offset="0" style="stop-color:#CC9D7D"/>
			<stop offset="0.5373" style="stop-color:#DFA585"/>
			<stop offset="1" style="stop-color:#EBAA8A"/>
		</linearGradient>
		<path d="M130.5,345.3l5.3,37.3c0,0,7.3,2.5,11.3,3.2c-0.3-5.1-2.8-41.9-2.8-41.9L130.5,345.3z" id="BkF-Jxus_nz"/>
		<path id="rJcZkeOsO2G" d="M235.7,259.7l13.6,113.1c0,0-0.4,6.1-5.5,7.6c-5.1,1.5-88.3,12-88.3,12s-8.1-2.6-9.3-8.7&#10;&#9;&#9;&#9;S128,251,128,251l16-2l6.5,49.2c0,0,2,3.3,4.5,3.2c2.5,0,79.3-10.2,79.3-10.2s1.9-1.4,1.6-3.9c-0.3-2.5-3.9-28.7-3.9-28.7&#10;&#9;&#9;&#9;L235.7,259.7z"/>
		<path id="B1oZkedsunf" d="M233.5,229.9l3.3,28.9c0,0-0.9,3.7-3.8,4.3c-2.9,0.6-35.4,4.8-35.4,4.8s-2.8-1.6-3.2-4&#10;&#9;&#9;&#9;c-0.4-2.4-2.4-17.1-2.4-17.1s-0.2-1.7-4.3-1c-4.1,0.6-4.4,2.1-4.4,2.1l2,17.3c0,0-0.3,3.7-2.5,4.3c-2.2,0.6-39.1,5.4-39.1,5.4&#10;&#9;&#9;&#9;s-3.5-1.8-4-4.4c-0.4-2.6-2.2-17.1-2.2-17.1l-15.3-0.2l-1.4-7.3L233.5,229.9z"/>
		<path id="By2bylujO3G" d="M240.2,229l3.3,28.9c0,0-0.9,3.7-3.8,4.3c-2.9,0.6-35.4,4.8-35.4,4.8s-2.8-1.6-3.2-4&#10;&#9;&#9;&#9;c-0.4-2.4-2.4-17.1-2.4-17.1s-0.2-1.7-4.3-1s-4.4,2.1-4.4,2.1l2,17.3c0,0-0.3,3.7-2.5,4.3c-2.2,0.6-39.1,5.4-39.1,5.4&#10;&#9;&#9;&#9;s-3.5-1.8-4-4.4c-0.4-2.6-2.2-17.1-2.2-17.1l-24.9,3.3l-1.1-10.5L240.2,229z"/>
		<path id="BJTbJldsd2G" d="M217.6,274.8l-50.3,6.8c0,0-3.7,1.9-3.4,5.7s5.7,41.1,5.7,41.1l18.2-2.1l-2.8-23.3&#10;&#9;&#9;&#9;c0,0,0.4-2.1,2.2-2.3s19.1-2.4,19.1-2.4s1.6,0.6,1.7,2.1c0.1,1.5,3.2,21.8,3.2,21.8l17.1-2.6l-6.5-41.6&#10;&#9;&#9;&#9;C221.8,278.1,220.6,274.4,217.6,274.8z"/>
		<path id="HyRZ1luju2M" d="M222.1,274.2l-50.3,6.8c0,0-3.7,1.9-3.4,5.7s5.7,41.1,5.7,41.1l18.2-2.1l-2.8-23.3&#10;&#9;&#9;&#9;c0,0,0.4-2.1,2.2-2.3s19.1-2.4,19.1-2.4s1.6,0.6,1.7,2.1s3.2,21.8,3.2,21.8l17.1-2.6l-6.5-41.6C226.2,277.4,225,273.8,222.1,274.2&#10;&#9;&#9;&#9;z"/>
		<defs>
			<filter id="Adobe_OpacityMaskFilter_2_" filterUnits="userSpaceOnUse" x="112.6" y="129" width="129" height="96.2">
				<feColorMatrix type="matrix" values="1 0 0 0 0  0 1 0 0 0  0 0 1 0 0  0 0 0 1 0"/>
			</filter>
		</defs>
		<mask maskUnits="userSpaceOnUse" x="112.6" y="129" width="129" height="96.2" id="XMLID_10_">
			<g id="XMLID_6_" class="st33">
				<path id="hat_3_" class="st18" d="M285.4,206.6l2,15.8l-182.7,25.5L93.8,173c0,0,1.2-10,5.9-10.9c4.2-0.8,95.1-13.7,113-16.3&#10;&#9;&#9;&#9;&#9;&#9;c2.4-0.3,4.9,0.2,6.8,1.6c3.1,2.1,7,6.1,8.1,13c1.9,11.6,7.9,52.6,7.9,52.6L285.4,206.6z"/>
			</g>
		</mask>
		
			<linearGradient id="XMLID_11_" gradientUnits="userSpaceOnUse" x1="1222.566" y1="176.5569" x2="1313.7502" y2="267.741" gradientTransform="matrix(-0.9962 -8.750370e-02 -8.750370e-02 0.9962 1465.4445 62.5251)">
			<stop offset="0" style="stop-color:#FF4AB5"/>
			<stop offset="0.2446" style="stop-color:#FC4194"/>
			<stop offset="0.7577" style="stop-color:#F53153"/>
			<stop offset="1" style="stop-color:#F22A3A"/>
		</linearGradient>
		<path id="rJkfJx_s_hz" d="M135.7,174.9c0,0-2.2-17.9-14.6-16.1c-12.4,1.8-7.6-16.8-7.6-16.8L230.1,129l11.5,83.2&#10;&#9;&#9;&#9;l-99.1,13L135.7,174.9z"/>
		<path id="Skxf1gdid2M" d="M264.7,332.3c11.4-25.7,13.9-55.5,5.1-84.5c-15-49.4-58.7-82.3-107.3-85.9&#10;&#9;&#9;&#9;c51.1-5,100.3,26.5,115.8,77.5C288.4,272.1,282.3,305.9,264.7,332.3z"/>
		<path d="M128,396.3c0,0,11.3-6.2,17.6-7.2c2.6-0.4,5.9,0.8,8.1,2.5c3.3,2.7,5.2,9.2,4.6,14.8c-0.7,6-8.9,9-8.9,9&#10;&#9;&#9;&#9;l-9.1,2.7c0,0,1.9-2,2.9-6.2c1.3-5-0.1-10.2-4.9-13.8C134.6,395.4,128,396.3,128,396.3z" id="rybfJgdiO2z"/>
		<path d="M140.4,443c0,0,2.3-7.4,5.3-10.2c1.2-1.2,3.8-3.3,7.7-4c4.5-0.8,10.9,1.1,13.8,6.1c3,5.2,0.8,12.2-0.4,14.8&#10;&#9;&#9;&#9;c-1.2,2.8-4.8,8.4-4.8,8.4s-0.5-7.9-3.1-11.5c-2.8-3.8-6.2-5.1-11.5-5.1C144.6,441.7,140.4,443,140.4,443z" id="SyGfyl_jdnz"/>
		<path id="SyQfyedsOnz" d="M75.1,273.7c5.7,39.8,28.3,73,59.4,93.4c-33.8-8.9-60.8-37.3-66.1-74.1&#10;&#9;&#9;&#9;c-2.3-16.1-0.2-31.9,5.5-46C73.5,255.8,73.8,264.7,75.1,273.7z"/>
		<polygon id="rkNGylOjOhG" points="206.4,233.5 223.4,264.5 234.7,263 218.3,232.1 &#9;&#9;"/>
		<polygon id="S1rfyedjunG" points="157.1,240.9 173.4,270.7 184.7,269.2 168.7,239.3 &#9;&#9;"/>
	</g></g>
	<g id="rJ8fklujOhz_SkhkYsuhf" data-animator-group="true" data-animator-type="0"><g id="rJ8fklujOhz">
		
			<linearGradient id="hat_2_" gradientUnits="userSpaceOnUse" x1="1356.7164" y1="248.3603" x2="1159.4896" y2="248.3603" gradientTransform="matrix(-0.9962 -8.750370e-02 -8.750370e-02 0.9962 1465.4445 62.5251)">
			<stop offset="0" style="stop-color:#BB063E"/>
			<stop offset="0.1392" style="stop-color:#C7063E"/>
			<stop offset="0.4785" style="stop-color:#E0063E"/>
		</linearGradient>
		<path id="rJvGJxuj_nG" d="M285.4,207l2,15.8l-182.7,25.5l-10.9-74.9c0,0-0.3-9.7,5.9-10.9c4.2-0.9,95.1-13.7,113-16.3&#10;&#9;&#9;&#9;c2.4-0.3,4.9,0.2,6.8,1.6c3.1,2.1,7,6.1,8.1,13c1.9,11.6,7.9,52.2,7.9,52.2L285.4,207z"/>
		<path d="M120.7,159.3c0,0,87.5-12.7,92-13.1c4-0.4,10.6,0.8,13.9,10.8c3.3,10,8.9,55.9,8.9,55.9L142,225&#10;&#9;&#9;&#9;c0,0-5.9-51.4-7.5-55.2C133,166,130.7,159.3,120.7,159.3z" id="SyOzJxOid2z"/>
		<polygon id="B1FGkedjuhf" points="285.4,206.6 287.4,222.4 189.6,236 187.8,219.1 &#9;&#9;"/>
		<polygon id="ry5MJldo_hz" points="203.2,188.9 205.3,204.9 171.6,209.6 169.3,193 &#9;&#9;"/>
	</g></g>
</g>
</svg>