<svg id="Hy7wzePpM" data-name="Layer 1" xmlns="http://www.w3.org/2000/svg" viewBox="0 0 379 184"><style>@-webkit-keyframes SyMW7DMxPpG_Animation{95.28%{opacity: 0;}95.83%{opacity: 1;}99.44%{opacity: 1;}100%{opacity: 0;}0%{opacity: 0;}}@keyframes SyMW7DMxPpG_Animation{95.28%{opacity: 0;}95.83%{opacity: 1;}99.44%{opacity: 1;}100%{opacity: 0;}0%{opacity: 0;}}@-webkit-keyframes rkDbXPMlPpf_Animation{91.11%{opacity: 0;}91.67%{opacity: 1;}99.72%{opacity: 1;}100%{opacity: 0;}0%{opacity: 0;}}@keyframes rkDbXPMlPpf_Animation{91.11%{opacity: 0;}91.67%{opacity: 1;}99.72%{opacity: 1;}100%{opacity: 0;}0%{opacity: 0;}}@-webkit-keyframes B1obXDMxvpf_Animation{86.11%{opacity: 0;}86.94%{opacity: 1;}99.72%{opacity: 1;}100%{opacity: 0;}0%{opacity: 0;}}@keyframes B1obXDMxvpf_Animation{86.11%{opacity: 0;}86.94%{opacity: 1;}99.72%{opacity: 1;}100%{opacity: 0;}0%{opacity: 0;}}@-webkit-keyframes SyJMmwMxvTM_Animation{81.11%{opacity: 0;}81.39%{opacity: 1;}99.72%{opacity: 1;}100%{opacity: 0;}0%{opacity: 0;}}@keyframes SyJMmwMxvTM_Animation{81.11%{opacity: 0;}81.39%{opacity: 1;}99.72%{opacity: 1;}100%{opacity: 0;}0%{opacity: 0;}}@-webkit-keyframes SyQMQvGlv6G_Animation{75%{opacity: 0;}75.56%{opacity: 1;}99.44%{opacity: 1;}100%{opacity: 0;}0%{opacity: 0;}}@keyframes SyQMQvGlv6G_Animation{75%{opacity: 0;}75.56%{opacity: 1;}99.44%{opacity: 1;}100%{opacity: 0;}0%{opacity: 0;}}@-webkit-keyframes HkPfQvGgw6z_Animation{70%{opacity: 0;}70.56%{opacity: 1;}99.44%{opacity: 1;}100%{opacity: 0;}0%{opacity: 0;}}@keyframes HkPfQvGgw6z_Animation{70%{opacity: 0;}70.56%{opacity: 1;}99.44%{opacity: 1;}100%{opacity: 0;}0%{opacity: 0;}}@-webkit-keyframes ryjfQvGlDpf_Animation{64.44%{opacity: 0;}65%{opacity: 1;}99.44%{opacity: 1;}100%{opacity: 0;}0%{opacity: 0;}}@keyframes ryjfQvGlDpf_Animation{64.44%{opacity: 0;}65%{opacity: 1;}99.44%{opacity: 1;}100%{opacity: 0;}0%{opacity: 0;}}@-webkit-keyframes HykQmvMlP6f_Animation{59.72%{opacity: 0;}60.28%{opacity: 1;}99.44%{opacity: 1;}100%{opacity: 0;}0%{opacity: 0;}}@keyframes HykQmvMlP6f_Animation{59.72%{opacity: 0;}60.28%{opacity: 1;}99.44%{opacity: 1;}100%{opacity: 0;}0%{opacity: 0;}}@-webkit-keyframes HyQQ7wGlv6z_Animation{55.56%{opacity: 0;}56.11%{opacity: 1;}99.44%{opacity: 1;}100%{opacity: 0;}0%{opacity: 0;}}@keyframes HyQQ7wGlv6z_Animation{55.56%{opacity: 0;}56.11%{opacity: 1;}99.44%{opacity: 1;}100%{opacity: 0;}0%{opacity: 0;}}@-webkit-keyframes B1wmmDGlvaG_Animation{51.94%{opacity: 0;}52.50%{opacity: 1;}99.44%{opacity: 1;}100%{opacity: 0;}0%{opacity: 0;}}@keyframes B1wmmDGlvaG_Animation{51.94%{opacity: 0;}52.50%{opacity: 1;}99.44%{opacity: 1;}100%{opacity: 0;}0%{opacity: 0;}}@-webkit-keyframes B1j77wfgvTM_Animation{47.78%{opacity: 0;}48.33%{opacity: 1;}99.44%{opacity: 1;}100%{opacity: 0;}0%{opacity: 0;}}@keyframes B1j77wfgvTM_Animation{47.78%{opacity: 0;}48.33%{opacity: 1;}99.44%{opacity: 1;}100%{opacity: 0;}0%{opacity: 0;}}@-webkit-keyframes HJy4QDMgDaG_Animation{43.61%{opacity: 0;}44.44%{opacity: 1;}99.72%{opacity: 1;}100%{opacity: 0;}0%{opacity: 0;}}@keyframes HJy4QDMgDaG_Animation{43.61%{opacity: 0;}44.44%{opacity: 1;}99.72%{opacity: 1;}100%{opacity: 0;}0%{opacity: 0;}}@-webkit-keyframes S1XEmvfgwaG_Animation{39.72%{opacity: 0;}40.28%{opacity: 1;}99.44%{opacity: 1;}100%{opacity: 0;}0%{opacity: 0;}}@keyframes S1XEmvfgwaG_Animation{39.72%{opacity: 0;}40.28%{opacity: 1;}99.44%{opacity: 1;}100%{opacity: 0;}0%{opacity: 0;}}@-webkit-keyframes ByD4mvzgwaz_Animation{36.11%{opacity: 0;}36.67%{opacity: 1;}99.44%{opacity: 1;}100%{opacity: 0;}0%{opacity: 0;}}@keyframes ByD4mvzgwaz_Animation{36.11%{opacity: 0;}36.67%{opacity: 1;}99.44%{opacity: 1;}100%{opacity: 0;}0%{opacity: 0;}}@-webkit-keyframes SJiEXDzxwaf_Animation{32.22%{opacity: 0;}32.78%{opacity: 1;}99.44%{opacity: 1;}100%{opacity: 0;}0%{opacity: 0;}}@keyframes SJiEXDzxwaf_Animation{32.22%{opacity: 0;}32.78%{opacity: 1;}99.44%{opacity: 1;}100%{opacity: 0;}0%{opacity: 0;}}@-webkit-keyframes r1Jr7wGewpf_Animation{0%{opacity: 0;}27.50%{opacity: 0;}28.06%{opacity: 1;}99.44%{opacity: 1;}100%{opacity: 0;}}@keyframes r1Jr7wGewpf_Animation{0%{opacity: 0;}27.50%{opacity: 0;}28.06%{opacity: 1;}99.44%{opacity: 1;}100%{opacity: 0;}}@-webkit-keyframes HkQrXwGgDTz_Animation{23.33%{opacity: 0;}23.89%{opacity: 1;}99.44%{opacity: 1;}100%{opacity: 0;}0%{opacity: 0;}}@keyframes HkQrXwGgDTz_Animation{23.33%{opacity: 0;}23.89%{opacity: 1;}99.44%{opacity: 1;}100%{opacity: 0;}0%{opacity: 0;}}@-webkit-keyframes SJPrXwGeDaz_Animation{18.33%{opacity: 0;}18.89%{opacity: 1;}99.44%{opacity: 1;}100%{opacity: 0;}0%{opacity: 0;}}@keyframes SJPrXwGeDaz_Animation{18.33%{opacity: 0;}18.89%{opacity: 1;}99.44%{opacity: 1;}100%{opacity: 0;}0%{opacity: 0;}}@-webkit-keyframes S1orQPGlw6f_Animation{14.17%{opacity: 0;}14.72%{opacity: 1;}99.44%{opacity: 1;}100%{opacity: 0;}0%{opacity: 0;}}@keyframes S1orQPGlw6f_Animation{14.17%{opacity: 0;}14.72%{opacity: 1;}99.44%{opacity: 1;}100%{opacity: 0;}0%{opacity: 0;}}@-webkit-keyframes B1y87vGxPTz_Animation{10.28%{opacity: 0;}11.39%{opacity: 1;}99.44%{opacity: 1;}100%{opacity: 0;}0%{opacity: 0;}}@keyframes B1y87vGxPTz_Animation{10.28%{opacity: 0;}11.39%{opacity: 1;}99.44%{opacity: 1;}100%{opacity: 0;}0%{opacity: 0;}}@-webkit-keyframes rymU7DflP6M_Animation{6.94%{opacity: 0;}8.06%{opacity: 1;}99.44%{opacity: 1;}100%{opacity: 0;}0%{opacity: 0;}}@keyframes rymU7DflP6M_Animation{6.94%{opacity: 0;}8.06%{opacity: 1;}99.44%{opacity: 1;}100%{opacity: 0;}0%{opacity: 0;}}@-webkit-keyframes r1ggXwMeP6f_BJgtPgDTz_Animation{84.44%{-webkit-transform: translate(15px, 7px);transform: translate(15px, 7px);}0%{-webkit-transform: translate(15px, 7px);transform: translate(15px, 7px);}100%{-webkit-transform: translate(15px, 7px);transform: translate(15px, 7px);}}@keyframes r1ggXwMeP6f_BJgtPgDTz_Animation{84.44%{-webkit-transform: translate(15px, 7px);transform: translate(15px, 7px);}0%{-webkit-transform: translate(15px, 7px);transform: translate(15px, 7px);}100%{-webkit-transform: translate(15px, 7px);transform: translate(15px, 7px);}}@-webkit-keyframes SkklXvfxDaz_rk_BvxPaM_Animation{84.44%{-webkit-transform: translate(15px, 7px);transform: translate(15px, 7px);}0%{-webkit-transform: translate(15px, 7px);transform: translate(15px, 7px);}100%{-webkit-transform: translate(15px, 7px);transform: translate(15px, 7px);}}@keyframes SkklXvfxDaz_rk_BvxPaM_Animation{84.44%{-webkit-transform: translate(15px, 7px);transform: translate(15px, 7px);}0%{-webkit-transform: translate(15px, 7px);transform: translate(15px, 7px);}100%{-webkit-transform: translate(15px, 7px);transform: translate(15px, 7px);}}@-webkit-keyframes HJXeQDfxD6M_Animation{91.67%{opacity: 0;}92.50%{opacity: 1;}99.72%{opacity: 1;}100%{opacity: 0;}0%{opacity: 0;}}@keyframes HJXeQDfxD6M_Animation{91.67%{opacity: 0;}92.50%{opacity: 1;}99.72%{opacity: 1;}100%{opacity: 0;}0%{opacity: 0;}}@-webkit-keyframes HJfxXPzxPaz_Animation{91.67%{opacity: 0;}92.50%{opacity: 1;}99.72%{opacity: 1;}100%{opacity: 0;}0%{opacity: 0;}}@keyframes HJfxXPzxPaz_Animation{91.67%{opacity: 0;}92.50%{opacity: 1;}99.72%{opacity: 1;}100%{opacity: 0;}0%{opacity: 0;}}@-webkit-keyframes BJ-xXPMeDTM_Animation{91.67%{opacity: 0;}92.50%{opacity: 1;}99.72%{opacity: 1;}100%{opacity: 0;}0%{opacity: 0;}}@keyframes BJ-xXPMeDTM_Animation{91.67%{opacity: 0;}92.50%{opacity: 1;}99.72%{opacity: 1;}100%{opacity: 0;}0%{opacity: 0;}}@-webkit-keyframes r1ggXwMeP6f_Animation{82.22%{opacity: 0;}83.06%{opacity: 1;}91.67%{opacity: 1;}92.50%{opacity: 0;}0%{opacity: 0;}}@keyframes r1ggXwMeP6f_Animation{82.22%{opacity: 0;}83.06%{opacity: 1;}91.67%{opacity: 1;}92.50%{opacity: 0;}0%{opacity: 0;}}@-webkit-keyframes SkklXvfxDaz_Animation{82.22%{opacity: 0;}83.06%{opacity: 1;}91.39%{opacity: 1;}92.50%{opacity: 0;}0%{opacity: 0;}}@keyframes SkklXvfxDaz_Animation{82.22%{opacity: 0;}83.06%{opacity: 1;}91.39%{opacity: 1;}92.50%{opacity: 0;}0%{opacity: 0;}}@-webkit-keyframes SyRXwMlvTf_Animation{72.78%{opacity: 0;}73.61%{opacity: 1;}82.22%{opacity: 1;}83.06%{opacity: 0;}0%{opacity: 0;}100%{opacity: 0;}}@keyframes SyRXwMlvTf_Animation{72.78%{opacity: 0;}73.61%{opacity: 1;}82.22%{opacity: 1;}83.06%{opacity: 0;}0%{opacity: 0;}100%{opacity: 0;}}@-webkit-keyframes SkaQwMgvTz_Animation{72.78%{opacity: 0;}73.61%{opacity: 1;}82.22%{opacity: 1;}83.06%{opacity: 0;}0%{opacity: 0;}100%{opacity: 0;}}@keyframes SkaQwMgvTz_Animation{72.78%{opacity: 0;}73.61%{opacity: 1;}82.22%{opacity: 1;}83.06%{opacity: 0;}0%{opacity: 0;}100%{opacity: 0;}}@-webkit-keyframes H1hmPzxPaz_Animation{63.06%{opacity: 0;}63.61%{opacity: 1;}73.06%{opacity: 1;}73.61%{opacity: 0;}0%{opacity: 0;}100%{opacity: 0;}}@keyframes H1hmPzxPaz_Animation{63.06%{opacity: 0;}63.61%{opacity: 1;}73.06%{opacity: 1;}73.61%{opacity: 0;}0%{opacity: 0;}100%{opacity: 0;}}@-webkit-keyframes HyoXPflDpM_Animation{62.78%{opacity: 0;}63.61%{opacity: 1;}72.78%{opacity: 1;}73.61%{opacity: 0;}0%{opacity: 0;}100%{opacity: 0;}}@keyframes HyoXPflDpM_Animation{62.78%{opacity: 0;}63.61%{opacity: 1;}72.78%{opacity: 1;}73.61%{opacity: 0;}0%{opacity: 0;}100%{opacity: 0;}}@-webkit-keyframes ry97vMlwTG_Animation{51.94%{opacity: 0;}52.78%{opacity: 1;}62.78%{opacity: 1;}63.33%{opacity: 0;}0%{opacity: 0;}100%{opacity: 0;}}@keyframes ry97vMlwTG_Animation{51.94%{opacity: 0;}52.78%{opacity: 1;}62.78%{opacity: 1;}63.33%{opacity: 0;}0%{opacity: 0;}100%{opacity: 0;}}@-webkit-keyframes BkY7DGlPTM_Animation{51.94%{opacity: 0;}52.50%{opacity: 1;}62.50%{opacity: 1;}63.06%{opacity: 0;}0%{opacity: 0;}100%{opacity: 0;}}@keyframes BkY7DGlPTM_Animation{51.94%{opacity: 0;}52.50%{opacity: 1;}62.50%{opacity: 1;}63.06%{opacity: 0;}0%{opacity: 0;}100%{opacity: 0;}}@-webkit-keyframes Bk_QDMlwTM_Animation{38.33%{opacity: 0;}39.72%{opacity: 1;}51.67%{opacity: 1;}52.50%{opacity: 0;}0%{opacity: 0;}}@keyframes Bk_QDMlwTM_Animation{38.33%{opacity: 0;}39.72%{opacity: 1;}51.67%{opacity: 1;}52.50%{opacity: 0;}0%{opacity: 0;}}@-webkit-keyframes S1PQwMlDaG_Animation{38.33%{opacity: 0;}39.72%{opacity: 1;}51.67%{opacity: 1;}52.50%{opacity: 0;}0%{opacity: 0;}}@keyframes S1PQwMlDaG_Animation{38.33%{opacity: 0;}39.72%{opacity: 1;}51.67%{opacity: 1;}52.50%{opacity: 0;}0%{opacity: 0;}}@-webkit-keyframes Hk8mDMewpM_Animation{26.67%{opacity: 0;}27.50%{opacity: 1;}38.33%{opacity: 1;}39.44%{opacity: 0;}0%{opacity: 0;}100%{opacity: 0;}}@keyframes Hk8mDMewpM_Animation{26.67%{opacity: 0;}27.50%{opacity: 1;}38.33%{opacity: 1;}39.44%{opacity: 0;}0%{opacity: 0;}100%{opacity: 0;}}@-webkit-keyframes B1BQPzew6f_Animation{26.67%{opacity: 0;}27.50%{opacity: 1;}38.33%{opacity: 1;}39.72%{opacity: 0;}0%{opacity: 0;}100%{opacity: 0;}}@keyframes B1BQPzew6f_Animation{26.67%{opacity: 0;}27.50%{opacity: 1;}38.33%{opacity: 1;}39.72%{opacity: 0;}0%{opacity: 0;}100%{opacity: 0;}}@-webkit-keyframes B1EXPMlD6z_Animation{15%{opacity: 0;}15.83%{opacity: 1;}26.67%{opacity: 1;}27.50%{opacity: 0;}0%{opacity: 0;}}@keyframes B1EXPMlD6z_Animation{15%{opacity: 0;}15.83%{opacity: 1;}26.67%{opacity: 1;}27.50%{opacity: 0;}0%{opacity: 0;}}@-webkit-keyframes HymQPGgDTf_Animation{15%{opacity: 0;}15.83%{opacity: 1;}26.67%{opacity: 1;}27.50%{opacity: 0;}0%{opacity: 0;}}@keyframes HymQPGgDTf_Animation{15%{opacity: 0;}15.83%{opacity: 1;}26.67%{opacity: 1;}27.50%{opacity: 0;}0%{opacity: 0;}}@-webkit-keyframes BkGQDfgwaG_Animation{5.83%{opacity: 0;}6.67%{opacity: 1;}15%{opacity: 1;}15.83%{opacity: 0;}0%{opacity: 0;}100%{opacity: 0;}}@keyframes BkGQDfgwaG_Animation{5.83%{opacity: 0;}6.67%{opacity: 1;}15%{opacity: 1;}15.83%{opacity: 0;}0%{opacity: 0;}100%{opacity: 0;}}#Hy7wzePpM *{-webkit-animation-duration: 12s;animation-duration: 12s;-webkit-animation-iteration-count: infinite;animation-iteration-count: infinite;-webkit-animation-timing-function: cubic-bezier(0, 0, 1, 1);animation-timing-function: cubic-bezier(0, 0, 1, 1);}#BkGQDfgwaG{fill: #02fdfa;-webkit-transform:  translate(-117.63px, -246.33px);transform:  translate(-117.63px, -246.33px);-webkit-animation-name: BkGQDfgwaG_Animation;animation-name: BkGQDfgwaG_Animation;-webkit-transform-origin: 50% 50%;transform-origin: 50% 50%;transform-box: fill-box;opacity: 0;}#HymQPGgDTf{fill: #02fdfa;-webkit-transform:  translate(-117.63px, -246.33px);transform:  translate(-117.63px, -246.33px);-webkit-transform-origin: 50% 50%;transform-origin: 50% 50%;transform-box: fill-box;-webkit-animation-name: HymQPGgDTf_Animation;animation-name: HymQPGgDTf_Animation;opacity: 0;}#B1EXPMlD6z{fill: #02fdfa;-webkit-transform:  translate(-117.63px, -246.33px);transform:  translate(-117.63px, -246.33px);-webkit-animation-name: B1EXPMlD6z_Animation;animation-name: B1EXPMlD6z_Animation;-webkit-transform-origin: 50% 50%;transform-origin: 50% 50%;transform-box: fill-box;opacity: 0;}#B1BQPzew6f{fill: #02fdfa;-webkit-transform:  translate(-117.63px, -246.33px);transform:  translate(-117.63px, -246.33px);-webkit-animation-name: B1BQPzew6f_Animation;animation-name: B1BQPzew6f_Animation;-webkit-transform-origin: 50% 50%;transform-origin: 50% 50%;transform-box: fill-box;opacity: 0;}#Hk8mDMewpM{fill: #02fdfa;-webkit-transform:  translate(-117.63px, -246.33px);transform:  translate(-117.63px, -246.33px);-webkit-animation-name: Hk8mDMewpM_Animation;animation-name: Hk8mDMewpM_Animation;-webkit-transform-origin: 50% 50%;transform-origin: 50% 50%;transform-box: fill-box;opacity: 0;}#S1PQwMlDaG{fill: #02fdfa;-webkit-transform:  translate(-117.63px, -246.33px);transform:  translate(-117.63px, -246.33px);-webkit-animation-name: S1PQwMlDaG_Animation;animation-name: S1PQwMlDaG_Animation;-webkit-transform-origin: 50% 50%;transform-origin: 50% 50%;transform-box: fill-box;opacity: 0;}#Bk_QDMlwTM{fill: #02fdfa;-webkit-transform:  translate(-117.63px, -246.33px);transform:  translate(-117.63px, -246.33px);-webkit-animation-name: Bk_QDMlwTM_Animation;animation-name: Bk_QDMlwTM_Animation;-webkit-transform-origin: 50% 50%;transform-origin: 50% 50%;transform-box: fill-box;opacity: 0;}#BkY7DGlPTM{fill: #02fdfa;-webkit-transform:  translate(-117.63px, -246.33px);transform:  translate(-117.63px, -246.33px);-webkit-animation-name: BkY7DGlPTM_Animation;animation-name: BkY7DGlPTM_Animation;-webkit-transform-origin: 50% 50%;transform-origin: 50% 50%;transform-box: fill-box;opacity: 0;}#ry97vMlwTG{fill: #02fdfa;-webkit-transform:  translate(-117.63px, -246.33px);transform:  translate(-117.63px, -246.33px);-webkit-animation-name: ry97vMlwTG_Animation;animation-name: ry97vMlwTG_Animation;-webkit-transform-origin: 50% 50%;transform-origin: 50% 50%;transform-box: fill-box;opacity: 0;}#HyoXPflDpM{fill: #02fdfa;-webkit-transform:  translate(-117.63px, -246.33px);transform:  translate(-117.63px, -246.33px);-webkit-animation-name: HyoXPflDpM_Animation;animation-name: HyoXPflDpM_Animation;-webkit-transform-origin: 50% 50%;transform-origin: 50% 50%;transform-box: fill-box;opacity: 0;}#H1hmPzxPaz{fill: #02fdfa;-webkit-transform:  translate(-117.63px, -246.33px);transform:  translate(-117.63px, -246.33px);-webkit-animation-name: H1hmPzxPaz_Animation;animation-name: H1hmPzxPaz_Animation;-webkit-transform-origin: 50% 50%;transform-origin: 50% 50%;transform-box: fill-box;opacity: 0;}#SkaQwMgvTz{fill: #02fdfa;-webkit-transform:  translate(-117.63px, -246.33px);transform:  translate(-117.63px, -246.33px);-webkit-animation-name: SkaQwMgvTz_Animation;animation-name: SkaQwMgvTz_Animation;-webkit-transform-origin: 50% 50%;transform-origin: 50% 50%;transform-box: fill-box;opacity: 0;}#SyRXwMlvTf{fill: #02fdfa;-webkit-transform:  translate(-117.63px, -246.33px);transform:  translate(-117.63px, -246.33px);-webkit-animation-name: SyRXwMlvTf_Animation;animation-name: SyRXwMlvTf_Animation;-webkit-transform-origin: 50% 50%;transform-origin: 50% 50%;transform-box: fill-box;opacity: 0;}#SkklXvfxDaz{fill: #02fdfa;-webkit-transform:  translate(-117.63px, -246.33px);transform:  translate(-117.63px, -246.33px);-webkit-animation-name: SkklXvfxDaz_Animation;animation-name: SkklXvfxDaz_Animation;-webkit-transform-origin: 50% 50%;transform-origin: 50% 50%;transform-box: fill-box;opacity: 0;}#r1ggXwMeP6f{fill: #02fdfa;-webkit-transform:  translate(-117.63px, -246.33px);transform:  translate(-117.63px, -246.33px);-webkit-animation-name: r1ggXwMeP6f_Animation;animation-name: r1ggXwMeP6f_Animation;-webkit-transform-origin: 50% 50%;transform-origin: 50% 50%;transform-box: fill-box;opacity: 0;}#BJ-xXPMeDTM{fill: #02fdfa;-webkit-transform:  translate(-117.63px, -246.33px);transform:  translate(-117.63px, -246.33px);-webkit-animation-name: BJ-xXPMeDTM_Animation;animation-name: BJ-xXPMeDTM_Animation;-webkit-transform-origin: 50% 50%;transform-origin: 50% 50%;transform-box: fill-box;opacity: 0;}#HJfxXPzxPaz{fill: #02fdfa;-webkit-transform:  translate(-117.63px, -246.33px);transform:  translate(-117.63px, -246.33px);-webkit-animation-name: HJfxXPzxPaz_Animation;animation-name: HJfxXPzxPaz_Animation;-webkit-transform-origin: 50% 50%;transform-origin: 50% 50%;transform-box: fill-box;opacity: 0;}#HJXeQDfxD6M{fill: #02fdfa;-webkit-transform:  translate(-117.63px, -246.33px);transform:  translate(-117.63px, -246.33px);-webkit-animation-name: HJXeQDfxD6M_Animation;animation-name: HJXeQDfxD6M_Animation;-webkit-transform-origin: 50% 50%;transform-origin: 50% 50%;transform-box: fill-box;opacity: 0;}#rJElmwGgPpM{fill: #02fdfa;-webkit-transform:  translate(-117.63px, -246.33px);transform:  translate(-117.63px, -246.33px);}#BkBg7wzlvTf{fill: none;stroke: #02fdfa;stroke-miterlimit: 10;stroke-width: 1.5px;-webkit-transform:  translate(-119.62px, -244.52px) rotate(-0.34deg);transform:  translate(-119.62px, -244.52px) rotate(-0.34deg);}#SkLlXDMgDTG{fill: #02fdfa;-webkit-transform:  translate(-117.63px, -246.33px);transform:  translate(-117.63px, -246.33px);}#SkDg7wfxvpz{fill: #02fdfa;-webkit-transform:  translate(-117.63px, -246.33px);transform:  translate(-117.63px, -246.33px);}#SJ_lXDGxvaG{fill: #02fdfa;-webkit-transform:  translate(-117.63px, -246.33px);transform:  translate(-117.63px, -246.33px);}#HyYgXDzePTG{fill: #02fdfa;-webkit-transform:  translate(-117.63px, -246.33px);transform:  translate(-117.63px, -246.33px);}#By5gQPzewaf{fill: #02fdfa;-webkit-transform:  translate(-117.63px, -246.33px);transform:  translate(-117.63px, -246.33px);}#BysxQvzxP6G{fill: #02fdfa;-webkit-transform:  translate(-117.63px, -246.33px);transform:  translate(-117.63px, -246.33px);}#rknxXPzlDTG{fill: #02fdfa;-webkit-transform:  translate(-117.63px, -246.33px);transform:  translate(-117.63px, -246.33px);}#BJalQwzgw6z{fill: #02fdfa;-webkit-transform:  translate(-117.63px, -246.33px);transform:  translate(-117.63px, -246.33px);}#rkAgXvMlDTf{fill: #02fdfa;-webkit-transform:  translate(-117.63px, -246.33px);transform:  translate(-117.63px, -246.33px);}#Sk1bXDfeP6M{fill: #02fdfa;-webkit-transform:  translate(-117.63px, -246.33px);transform:  translate(-117.63px, -246.33px);}#r1Q-mwzxD6f{fill: #02fdfa;-webkit-transform:  translate(-117.63px, -246.33px);transform:  translate(-117.63px, -246.33px);}#SJ4bQvGlDaG{fill: #02fdfa;-webkit-transform:  translate(-117.63px, -246.33px);transform:  translate(-117.63px, -246.33px);}#rkBbQvzxD6G{fill: #02fdfa;-webkit-transform:  translate(-117.63px, -246.33px);transform:  translate(-117.63px, -246.33px);}#BJL-7vGlDpf{fill: #02fdfa;-webkit-transform:  translate(-117.63px, -246.33px);transform:  translate(-117.63px, -246.33px);}#HkuZmPGgw6G{fill: #02fdfa;-webkit-transform:  translate(-117.63px, -246.33px);transform:  translate(-117.63px, -246.33px);}#B1KbmvzxwpG{fill: #02fdfa;-webkit-transform:  translate(-117.63px, -246.33px);transform:  translate(-117.63px, -246.33px);}#SJ9bQvflPTM{fill: #02fdfa;-webkit-transform:  translate(-117.63px, -246.33px);transform:  translate(-117.63px, -246.33px);}#SynW7vGgPpf{fill: #02fdfa;-webkit-transform:  translate(-117.63px, -246.33px);transform:  translate(-117.63px, -246.33px);}#r16-7DfeP6M{fill: #02fdfa;-webkit-transform:  translate(-117.63px, -246.33px);transform:  translate(-117.63px, -246.33px);}#BJCW7wMlw6M{fill: #02fdfa;-webkit-transform:  translate(-117.63px, -246.33px);transform:  translate(-117.63px, -246.33px);}#Hygz7DfgPpz{fill: #02fdfa;-webkit-transform:  translate(-117.63px, -246.33px);transform:  translate(-117.63px, -246.33px);}#SyWfQwzlv6z{fill: #02fdfa;-webkit-transform:  translate(-117.63px, -246.33px);transform:  translate(-117.63px, -246.33px);}#HkzzXDflPpf{fill: #02fdfa;-webkit-transform:  translate(-117.63px, -246.33px);transform:  translate(-117.63px, -246.33px);}#HkEG7vGgP6G{fill: #02fdfa;-webkit-transform:  translate(-117.63px, -246.33px);transform:  translate(-117.63px, -246.33px);}#S1BMXDGeD6M{fill: #02fdfa;-webkit-transform:  translate(-117.63px, -246.33px);transform:  translate(-117.63px, -246.33px);}#B1UfQDfxv6M{fill: #02fdfa;-webkit-transform:  translate(-117.63px, -246.33px);transform:  translate(-117.63px, -246.33px);}#r1dMmPMew6z{fill: #02fdfa;-webkit-transform:  translate(-117.63px, -246.33px);transform:  translate(-117.63px, -246.33px);}#SyKzXvGeDpM{fill: #02fdfa;-webkit-transform:  translate(-117.63px, -246.33px);transform:  translate(-117.63px, -246.33px);}#SJqz7PzgwTM{fill: #02fdfa;-webkit-transform:  translate(-117.63px, -246.33px);transform:  translate(-117.63px, -246.33px);}#rknz7wfxwaG{fill: #02fdfa;-webkit-transform:  translate(-117.63px, -246.33px);transform:  translate(-117.63px, -246.33px);}#Hkpz7DzlvTG{fill: #02fdfa;-webkit-transform:  translate(-117.63px, -246.33px);transform:  translate(-117.63px, -246.33px);}#r1CfmvGgP6z{fill: #02fdfa;-webkit-transform:  translate(-117.63px, -246.33px);transform:  translate(-117.63px, -246.33px);}#S1lmmDMxwpf{fill: #02fdfa;-webkit-transform:  translate(-117.63px, -246.33px);transform:  translate(-117.63px, -246.33px);}#r1WX7PMeDTz{fill: #02fdfa;-webkit-transform:  translate(-117.63px, -246.33px);transform:  translate(-117.63px, -246.33px);}#H1fQ7PMgwTG{fill: #02fdfa;-webkit-transform:  translate(-117.63px, -246.33px);transform:  translate(-117.63px, -246.33px);}#BJ47XPMxwTM{fill: #02fdfa;-webkit-transform:  translate(-117.63px, -246.33px);transform:  translate(-117.63px, -246.33px);}#r1rXQvzxvpG{fill: #02fdfa;-webkit-transform:  translate(-117.63px, -246.33px);transform:  translate(-117.63px, -246.33px);}#HJLQXvGxDaM{fill: #02fdfa;-webkit-transform:  translate(-117.63px, -246.33px);transform:  translate(-117.63px, -246.33px);}#Byum7PzgvTz{fill: #02fdfa;-webkit-transform:  translate(-117.63px, -246.33px);transform:  translate(-117.63px, -246.33px);}#SkYQ7wGlw6M{fill: #02fdfa;-webkit-transform:  translate(-117.63px, -246.33px);transform:  translate(-117.63px, -246.33px);}#S15XXvMlwaM{fill: #02fdfa;-webkit-transform:  translate(-117.63px, -246.33px);transform:  translate(-117.63px, -246.33px);}#BknXXPGeDpG{fill: #02fdfa;-webkit-transform:  translate(-117.63px, -246.33px);transform:  translate(-117.63px, -246.33px);}#BkpmXvMew6z{fill: #02fdfa;-webkit-transform:  translate(-117.63px, -246.33px);transform:  translate(-117.63px, -246.33px);}#ryR7mvfePpG{fill: #02fdfa;-webkit-transform:  translate(-117.63px, -246.33px);transform:  translate(-117.63px, -246.33px);}#rJxE7wzgDpz{fill: #02fdfa;-webkit-transform:  translate(-117.63px, -246.33px);transform:  translate(-117.63px, -246.33px);}#rkZ4mDzePaG{fill: #02fdfa;-webkit-transform:  translate(-117.63px, -246.33px);transform:  translate(-117.63px, -246.33px);}#SkzNXwMxPaz{fill: #02fdfa;-webkit-transform:  translate(-117.63px, -246.33px);transform:  translate(-117.63px, -246.33px);}#HJEVQPzeP6M{fill: #02fdfa;-webkit-transform:  translate(-117.63px, -246.33px);transform:  translate(-117.63px, -246.33px);}#HkB4mDzePaf{fill: #02fdfa;-webkit-transform:  translate(-117.63px, -246.33px);transform:  translate(-117.63px, -246.33px);}#HJLEmvGxvpG{fill: #02fdfa;-webkit-transform:  translate(-117.63px, -246.33px);transform:  translate(-117.63px, -246.33px);}#BydE7DGgDpf{fill: #02fdfa;-webkit-transform:  translate(-117.63px, -246.33px);transform:  translate(-117.63px, -246.33px);}#BytVmPGgwTf{fill: #02fdfa;-webkit-transform:  translate(-117.63px, -246.33px);transform:  translate(-117.63px, -246.33px);}#HJcN7wzlPpz{fill: #02fdfa;-webkit-transform:  translate(-117.63px, -246.33px);transform:  translate(-117.63px, -246.33px);}#Sk247vGlPTG{fill: #02fdfa;-webkit-transform:  translate(-117.63px, -246.33px);transform:  translate(-117.63px, -246.33px);}#HyaEQPflv6f{fill: #02fdfa;-webkit-transform:  translate(-117.63px, -246.33px);transform:  translate(-117.63px, -246.33px);}#ByA4Xwzxwpf{fill: #02fdfa;-webkit-transform:  translate(-117.63px, -246.33px);transform:  translate(-117.63px, -246.33px);}#HylBmwfgP6f{fill: #02fdfa;-webkit-transform:  translate(-117.63px, -246.33px);transform:  translate(-117.63px, -246.33px);}#BJbB7DfxPaG{fill: #02fdfa;-webkit-transform:  translate(-117.63px, -246.33px);transform:  translate(-117.63px, -246.33px);}#B1MBQvGeD6G{fill: #02fdfa;-webkit-transform:  translate(-117.63px, -246.33px);transform:  translate(-117.63px, -246.33px);}#r1ESXwfgwaf{fill: #02fdfa;-webkit-transform:  translate(-117.63px, -246.33px);transform:  translate(-117.63px, -246.33px);}#HkrrQvMxwTM{fill: #02fdfa;-webkit-transform:  translate(-117.63px, -246.33px);transform:  translate(-117.63px, -246.33px);}#SyUrXPzxDTM{fill: #02fdfa;-webkit-transform:  translate(-117.63px, -246.33px);transform:  translate(-117.63px, -246.33px);}#BJdS7wGgvpM{fill: #02fdfa;-webkit-transform:  translate(-117.63px, -246.33px);transform:  translate(-117.63px, -246.33px);}#ryKBmDGxwpf{fill: #02fdfa;-webkit-transform:  translate(-117.63px, -246.33px);transform:  translate(-117.63px, -246.33px);}#ByqHQDGxwpf{fill: #02fdfa;-webkit-transform:  translate(-117.63px, -246.33px);transform:  translate(-117.63px, -246.33px);}#BkhS7PGgv6f{fill: #02fdfa;-webkit-transform:  translate(-117.63px, -246.33px);transform:  translate(-117.63px, -246.33px);}#B1arQvzeD6f{fill: #02fdfa;-webkit-transform:  translate(-117.63px, -246.33px);transform:  translate(-117.63px, -246.33px);}#Hk0BQvMxPTz{fill: #02fdfa;-webkit-transform:  translate(-117.63px, -246.33px);transform:  translate(-117.63px, -246.33px);}#B1eI7vflDpz{fill: #02fdfa;-webkit-transform:  translate(-117.63px, -246.33px);transform:  translate(-117.63px, -246.33px);}#HJZ8Qwflvaf{fill: #02fdfa;-webkit-transform:  translate(-117.63px, -246.33px);transform:  translate(-117.63px, -246.33px);}#BkfIQvGlDaf{fill: #02fdfa;-webkit-transform:  translate(-117.63px, -246.33px);transform:  translate(-117.63px, -246.33px);}#HJ48XDfgwaM{fill: #02fdfa;-webkit-transform:  translate(-117.63px, -246.33px);transform:  translate(-117.63px, -246.33px);}#SkHI7DGxwaM{fill: #02fdfa;-webkit-transform:  translate(-117.63px, -246.33px);transform:  translate(-117.63px, -246.33px);}#Sy8L7vGePaG{fill: #02fdfa;-webkit-transform:  translate(-117.63px, -246.33px);transform:  translate(-117.63px, -246.33px);}#SkklXvfxDaz_rk_BvxPaM{-webkit-animation-name: SkklXvfxDaz_rk_BvxPaM_Animation;animation-name: SkklXvfxDaz_rk_BvxPaM_Animation;-webkit-transform-origin: 50% 50%;transform-origin: 50% 50%;transform-box: fill-box;-webkit-transform: translate(15px, 7px);transform: translate(15px, 7px);}#r1ggXwMeP6f_BJgtPgDTz{-webkit-animation-name: r1ggXwMeP6f_BJgtPgDTz_Animation;animation-name: r1ggXwMeP6f_BJgtPgDTz_Animation;-webkit-transform-origin: 50% 50%;transform-origin: 50% 50%;transform-box: fill-box;-webkit-transform: translate(15px, 7px);transform: translate(15px, 7px);}#rymU7DflP6M{-webkit-animation-name: rymU7DflP6M_Animation;animation-name: rymU7DflP6M_Animation;-webkit-transform-origin: 50% 50%;transform-origin: 50% 50%;transform-box: fill-box;opacity: 0;}#B1y87vGxPTz{-webkit-animation-name: B1y87vGxPTz_Animation;animation-name: B1y87vGxPTz_Animation;-webkit-transform-origin: 50% 50%;transform-origin: 50% 50%;transform-box: fill-box;opacity: 0;}#S1orQPGlw6f{-webkit-animation-name: S1orQPGlw6f_Animation;animation-name: S1orQPGlw6f_Animation;-webkit-transform-origin: 50% 50%;transform-origin: 50% 50%;transform-box: fill-box;opacity: 0;}#SJPrXwGeDaz{-webkit-animation-name: SJPrXwGeDaz_Animation;animation-name: SJPrXwGeDaz_Animation;-webkit-transform-origin: 50% 50%;transform-origin: 50% 50%;transform-box: fill-box;opacity: 0;}#HkQrXwGgDTz{-webkit-animation-name: HkQrXwGgDTz_Animation;animation-name: HkQrXwGgDTz_Animation;-webkit-transform-origin: 50% 50%;transform-origin: 50% 50%;transform-box: fill-box;opacity: 0;}#r1Jr7wGewpf{-webkit-animation-name: r1Jr7wGewpf_Animation;animation-name: r1Jr7wGewpf_Animation;-webkit-transform-origin: 50% 50%;transform-origin: 50% 50%;transform-box: fill-box;opacity: 0;}#SJiEXDzxwaf{-webkit-animation-name: SJiEXDzxwaf_Animation;animation-name: SJiEXDzxwaf_Animation;-webkit-transform-origin: 50% 50%;transform-origin: 50% 50%;transform-box: fill-box;opacity: 0;}#ByD4mvzgwaz{-webkit-animation-name: ByD4mvzgwaz_Animation;animation-name: ByD4mvzgwaz_Animation;-webkit-transform-origin: 50% 50%;transform-origin: 50% 50%;transform-box: fill-box;opacity: 0;}#S1XEmvfgwaG{-webkit-animation-name: S1XEmvfgwaG_Animation;animation-name: S1XEmvfgwaG_Animation;-webkit-transform-origin: 50% 50%;transform-origin: 50% 50%;transform-box: fill-box;opacity: 0;}#HJy4QDMgDaG{-webkit-animation-name: HJy4QDMgDaG_Animation;animation-name: HJy4QDMgDaG_Animation;-webkit-transform-origin: 50% 50%;transform-origin: 50% 50%;transform-box: fill-box;opacity: 0;}#B1j77wfgvTM{-webkit-animation-name: B1j77wfgvTM_Animation;animation-name: B1j77wfgvTM_Animation;-webkit-transform-origin: 50% 50%;transform-origin: 50% 50%;transform-box: fill-box;opacity: 0;}#B1wmmDGlvaG{-webkit-animation-name: B1wmmDGlvaG_Animation;animation-name: B1wmmDGlvaG_Animation;-webkit-transform-origin: 50% 50%;transform-origin: 50% 50%;transform-box: fill-box;opacity: 0;}#HyQQ7wGlv6z{-webkit-animation-name: HyQQ7wGlv6z_Animation;animation-name: HyQQ7wGlv6z_Animation;-webkit-transform-origin: 50% 50%;transform-origin: 50% 50%;transform-box: fill-box;opacity: 0;}#HykQmvMlP6f{-webkit-animation-name: HykQmvMlP6f_Animation;animation-name: HykQmvMlP6f_Animation;-webkit-transform-origin: 50% 50%;transform-origin: 50% 50%;transform-box: fill-box;opacity: 0;}#ryjfQvGlDpf{-webkit-animation-name: ryjfQvGlDpf_Animation;animation-name: ryjfQvGlDpf_Animation;-webkit-transform-origin: 50% 50%;transform-origin: 50% 50%;transform-box: fill-box;opacity: 0;}#HkPfQvGgw6z{-webkit-animation-name: HkPfQvGgw6z_Animation;animation-name: HkPfQvGgw6z_Animation;-webkit-transform-origin: 50% 50%;transform-origin: 50% 50%;transform-box: fill-box;opacity: 0;}#SyQMQvGlv6G{-webkit-animation-name: SyQMQvGlv6G_Animation;animation-name: SyQMQvGlv6G_Animation;-webkit-transform-origin: 50% 50%;transform-origin: 50% 50%;transform-box: fill-box;opacity: 0;}#SyJMmwMxvTM{-webkit-animation-name: SyJMmwMxvTM_Animation;animation-name: SyJMmwMxvTM_Animation;-webkit-transform-origin: 50% 50%;transform-origin: 50% 50%;transform-box: fill-box;opacity: 0;}#B1obXDMxvpf{-webkit-animation-name: B1obXDMxvpf_Animation;animation-name: B1obXDMxvpf_Animation;-webkit-transform-origin: 50% 50%;transform-origin: 50% 50%;transform-box: fill-box;opacity: 0;}#rkDbXPMlPpf{-webkit-animation-name: rkDbXPMlPpf_Animation;animation-name: rkDbXPMlPpf_Animation;-webkit-transform-origin: 50% 50%;transform-origin: 50% 50%;transform-box: fill-box;opacity: 0;}#SyMW7DMxPpG{-webkit-animation-name: SyMW7DMxPpG_Animation;animation-name: SyMW7DMxPpG_Animation;-webkit-transform-origin: 50% 50%;transform-origin: 50% 50%;transform-box: fill-box;opacity: 0;}</style><defs/><title>Loading_c</title><g id="HygXDGePpM"><g id="HkZmPzgDaG"><path d="M316.74,342l-5.29-2.47,20.64-10.39c2.46-1.25,4.47-2.2,6-2.87-.7,0-1.51,0-2.43,0s-3.95-.13-9.07-.33l.6-2.89,17.06.8,4.41,2.06Z" id="BkGQDfgwaG"/><path d="M290.45,329.75l-5.29-2.47,20.64-10.4q3.7-1.86,6-2.87c-.69,0-1.5,0-2.43,0s-4-.13-9.07-.33l.6-2.88,17.06.8,4.41,2.06Z" id="HymQPGgDTf"/><path d="M305,336.52l40.4-7.72-17.1-8,4.53-2.28,22.73,10.63-3.58,1.8-41.26,8.23Z" id="B1EXPMlD6z"/><path d="M297.22,332.91,274.93,322.5l3.89-2,16.77-.22c5-.08,8.42-.2,10.28-.34a33.6,33.6,0,0,0,4.73-.65,14.66,14.66,0,0,0,3.51-1.22c1.44-.73,2.14-1.51,2.07-2.34s-.87-1.62-2.45-2.36A19.15,19.15,0,0,0,309.4,312a47.19,47.19,0,0,0-6.53-.67l.53-3a49.81,49.81,0,0,1,8.52.88,29.39,29.39,0,0,1,6.45,2.1q4.59,2.15,5,4.61t-3.5,4.45a21,21,0,0,1-4.91,1.7,46.29,46.29,0,0,1-6.46.87q-3.72.27-11.08.25l-11.09,0-.22.11,15.6,7.29Z" id="B1BQPzew6f"/><path d="M346.89,332.22a16.74,16.74,0,0,1-6.89,1.69,23.61,23.61,0,0,1-7.84-1L332,333q3.48,2.08,3.54,4c.05,1.26-1,2.42-3.1,3.48a20.56,20.56,0,0,1-10.47,2,32.5,32.5,0,0,1-12-3.19q-5.46-2.56-7.49-5.18l4.57-2.3a13.91,13.91,0,0,0,2.88,2.85,21.8,21.8,0,0,0,3.95,2.38,19.46,19.46,0,0,0,7.09,2,11.84,11.84,0,0,0,6.15-1.26c1.71-.86,2.26-1.82,1.67-2.87s-2.38-2.28-5.36-3.68l-2.86-1.33,4.17-2.11,2.91,1.36q7.86,3.67,13.16,1c1.37-.69,2-1.43,1.79-2.24s-1.14-1.62-2.93-2.45A22.27,22.27,0,0,0,335.5,324a43.67,43.67,0,0,0-6.09-.91l1-3a37.5,37.5,0,0,1,13.73,3.28c3.32,1.55,5.21,3.1,5.69,4.67S349.32,331,346.89,332.22Z" id="Hk8mDMewpM"/><path d="M320.6,319.93a16.75,16.75,0,0,1-6.89,1.7,23.63,23.63,0,0,1-7.84-1l-.18.09c2.32,1.4,3.5,2.72,3.54,4s-1,2.42-3.1,3.49a20.54,20.54,0,0,1-10.47,2,32.42,32.42,0,0,1-12-3.2q-5.47-2.55-7.5-5.18l4.57-2.3a13.91,13.91,0,0,0,2.88,2.85,20.72,20.72,0,0,0,3.95,2.38,19.69,19.69,0,0,0,7.09,2,12,12,0,0,0,6.15-1.27c1.71-.86,2.26-1.81,1.67-2.87s-2.38-2.28-5.36-3.67l-2.86-1.34,4.18-2.1,2.9,1.35q7.86,3.69,13.16,1c1.37-.69,2-1.44,1.8-2.24s-1.15-1.62-2.94-2.45a21.56,21.56,0,0,0-4.11-1.43,43.9,43.9,0,0,0-6.09-.9l1-3a38,38,0,0,1,13.74,3.28q5,2.32,5.68,4.67T320.6,319.93Z" id="S1PQwMlDaG"/><path d="M332.34,329.94q5,2.32,5.31,5t-4.08,4.87a23.89,23.89,0,0,1-11.28,2.49,29.76,29.76,0,0,1-12.24-2.93c-3.67-1.72-6-3.36-6.93-4.92l4.66-2.34a10.22,10.22,0,0,0,2.63,2.73,21,21,0,0,0,3.83,2.33,17.68,17.68,0,0,0,7,1.76,13.18,13.18,0,0,0,6.41-1.42q5.73-2.88-1.78-6.39c-.71-.33-1.65-.7-2.82-1.12s-2.23-.76-3.19-1l-1-1.79,16.86-7.27,17.09,8-4.56,2.31-12.44-5.82L327.15,328l2.23.75A28.21,28.21,0,0,1,332.34,329.94Z" id="Bk_QDMlwTM"/><path d="M305.36,329.94l-4.43-2.07-7,3.51-5.15-2.4,7-3.51-15-7,4-2,36.14-3.62,5.15,2.41-20.82,10.48,4.44,2.07ZM300,323.32l8-4c2.85-1.44,5.27-2.58,7.24-3.43l-.18-.09q-2.07.44-5.48.84l-19.7,2Z" id="BkY7DGlPTM"/><path d="M316.74,342l-5.29-2.47,20.64-10.39c2.46-1.24,4.48-2.2,6-2.87-.69,0-1.5,0-2.43,0s-3.95-.13-9.07-.33l.6-2.89,17.06.8,4.41,2.06Z" id="ry97vMlwTG"/><path d="M288.64,315.68q18.76-9.45,34.48-2.11a22.68,22.68,0,0,1,3.81,2.15l-4.29,2.15a15.62,15.62,0,0,0-3.47-2.09,23.58,23.58,0,0,0-10.7-2.32,29.8,29.8,0,0,0-11.71,3.1l.28.13a20.23,20.23,0,0,1,5.71,0,18.75,18.75,0,0,1,5.47,1.61q4.47,2.08,4.3,4.6c-.11,1.67-1.69,3.28-4.74,4.81a24.88,24.88,0,0,1-10.84,2.65,24.07,24.07,0,0,1-10.8-2.21q-3.52-1.65-4.49-3.7a4,4,0,0,1,.8-4.3A18.24,18.24,0,0,1,288.64,315.68Zm1.65,10.3a12.13,12.13,0,0,0,5.91,1.1,15.78,15.78,0,0,0,6.34-1.77c1.84-.92,2.82-1.86,2.95-2.82s-.73-1.87-2.58-2.73a13.5,13.5,0,0,0-3.86-1.12,16.54,16.54,0,0,0-4.21-.08,10.22,10.22,0,0,0-3.36.88Q288.4,321,288,322.86T290.29,326Z" id="HyoXPflDpM"/><path d="M339.49,337.14a45.34,45.34,0,0,1-15.13,4.95,22.92,22.92,0,0,1-12.47-1.9q-5.49-2.56-4.14-6t9.41-7.49a45.54,45.54,0,0,1,15.22-5,22.9,22.9,0,0,1,12.41,1.91q5.52,2.56,4.15,6T339.49,337.14Zm-17-7.93q-6.54,3.29-7.95,5.35t1.62,3.47a11.9,11.9,0,0,0,7.28.65,42,42,0,0,0,10.7-4c4.28-2.15,6.91-3.94,7.89-5.34s.46-2.58-1.56-3.52a11.8,11.8,0,0,0-7.24-.65A42.61,42.61,0,0,0,322.51,329.21Z" id="H1hmPzxPaz"/><path d="M278.67,324.24l40.39-7.72-17.1-8,4.53-2.28,22.74,10.62-3.59,1.81-41.26,8.23Z" id="SkaQwMgvTz"/><path d="M323.51,345.19l-22.29-10.41,3.89-2,16.77-.21q7.49-.14,10.28-.34a35.14,35.14,0,0,0,4.73-.65,15.59,15.59,0,0,0,3.51-1.22c1.44-.73,2.13-1.51,2.07-2.35s-.88-1.62-2.45-2.35a18.66,18.66,0,0,0-4.33-1.37,45.68,45.68,0,0,0-6.53-.67l.53-3.05a49.71,49.71,0,0,1,8.52.89,29.39,29.39,0,0,1,6.45,2.1c3.06,1.43,4.74,3,5,4.61s-.88,3.12-3.5,4.44a20.53,20.53,0,0,1-4.91,1.7,44.73,44.73,0,0,1-6.46.88q-3.72.27-11.09.24l-11.09,0-.21.11,15.6,7.3Z" id="SyRXwMlvTf"/><g id="SkklXvfxDaz_rk_BvxPaM" data-animator-group="true" data-animator-type="0"><path d="M303.53,318.07a46.37,46.37,0,0,1-18,5.27,33.48,33.48,0,0,1-16.45-3.16,21.77,21.77,0,0,1-3.94-2.18l4.31-2.17a15.87,15.87,0,0,0,3.48,2.16,23.44,23.44,0,0,0,10.78,2.32,30.07,30.07,0,0,0,11.66-3.09l-.27-.12a22.41,22.41,0,0,1-6-.07,19.74,19.74,0,0,1-5.27-1.61q-4.36-2-4.22-4.54c.1-1.67,1.69-3.27,4.77-4.82a25.07,25.07,0,0,1,10.85-2.66A23.79,23.79,0,0,1,306,305.59q3.51,1.64,4.45,3.69a4,4,0,0,1-.79,4.31A18,18,0,0,1,303.53,318.07Zm-1.67-10.29a12.06,12.06,0,0,0-5.95-1.09,16.18,16.18,0,0,0-6.35,1.77c-1.82.92-2.8,1.86-2.93,2.8s.72,1.86,2.56,2.72a15,15,0,0,0,6.05,1.32,11.52,11.52,0,0,0,5.45-1,8,8,0,0,0,2.87-2.19,2.42,2.42,0,0,0,.5-2.37A3.9,3.9,0,0,0,301.86,307.78Z" id="SkklXvfxDaz"/></g><g id="r1ggXwMeP6f_BJgtPgDTz" data-animator-group="true" data-animator-type="0"><path d="M304.77,336.44,299.49,334l20.64-10.39c2.46-1.25,4.47-2.2,6-2.87-.7,0-1.51,0-2.43,0s-3.95-.14-9.07-.34l.6-2.88,17.06.8,4.41,2.06Z" id="r1ggXwMeP6f"/></g><path d="M264.16,317.46,258.87,315l20.64-10.39q3.71-1.86,6-2.87c-.69,0-1.5,0-2.43,0s-3.95-.13-9.07-.33l.6-2.89,17.06.8,4.41,2.06Z" id="BJ-xXPMeDTM"/><path d="M313.2,324.86a45.3,45.3,0,0,1-15.13,4.94,23,23,0,0,1-12.47-1.89q-5.49-2.57-4.14-6t9.41-7.49a45.5,45.5,0,0,1,15.22-5,23,23,0,0,1,12.41,1.9q5.52,2.58,4.15,6T313.2,324.86Zm-17-7.94q-6.54,3.3-8,5.35t1.62,3.48a11.9,11.9,0,0,0,7.28.64,41.88,41.88,0,0,0,10.7-4c4.28-2.16,6.92-3.94,7.89-5.34s.46-2.58-1.56-3.53a11.81,11.81,0,0,0-7.24-.64A42.51,42.51,0,0,0,296.22,316.92Z" id="HJfxXPzxPaz"/><path d="M339.49,337.14a45.34,45.34,0,0,1-15.13,4.95,22.92,22.92,0,0,1-12.47-1.9q-5.49-2.56-4.14-6t9.41-7.49a45.54,45.54,0,0,1,15.22-5,22.9,22.9,0,0,1,12.41,1.91q5.52,2.56,4.15,6T339.49,337.14Zm-17-7.93q-6.54,3.29-8,5.35t1.63,3.47a11.9,11.9,0,0,0,7.28.65,42,42,0,0,0,10.7-4q6.42-3.24,7.89-5.34c1-1.4.46-2.58-1.56-3.52a11.8,11.8,0,0,0-7.24-.65A42.61,42.61,0,0,0,322.51,329.21Z" id="HJXeQDfxD6M"/></g><path d="M389.73,345.44,339.53,353l-4.36-2,50.2-7.58Zm-24.26-2.08a26.59,26.59,0,0,1-9.41,2.94,15.22,15.22,0,0,1-8-1.29q-3.42-1.61-2.69-3.79c.49-1.46,2.36-3,5.59-4.64q10-5,17.17-1.68,3.53,1.65,2.84,3.84C370.51,340.21,368.67,341.74,365.47,343.36Zm-10.17-4.71a14.84,14.84,0,0,0-4.2,2.75q-.94,1.11.54,1.8,3,1.4,9.42-1.86t3.48-4.63a5.74,5.74,0,0,0-3.73-.2A24.76,24.76,0,0,0,355.3,338.65Zm18.76,21.17a26.41,26.41,0,0,1-9.4,2.92,15.3,15.3,0,0,1-8-1.27q-3.42-1.61-2.72-3.79t5.58-4.64q10-5,17.19-1.67c2.3,1.08,3.24,2.35,2.8,3.81S377.29,358.19,374.06,359.82Zm-10.12-4.73a14.62,14.62,0,0,0-4.21,2.76c-.63.75-.46,1.36.53,1.82q3,1.38,9.44-1.89t3.46-4.61a5.84,5.84,0,0,0-3.72-.21A24.48,24.48,0,0,0,363.94,355.09Z" id="rJElmwGgPpM"/><ellipse cx="307.19" cy="338.71" rx="188.81" ry="91.63" id="BkBg7wzlvTf"/><path d="M221.12,329.39l14.82-7.46,2.49,1.16-12.74,6.42,6.45,3-2.07,1.05Z" id="SkLlXDMgDTG"/><path d="M253.65,337.38a18,18,0,0,1-7.49,2,15.64,15.64,0,0,1-7.27-1.45q-3.45-1.62-3.31-3.48t3.81-3.71a17.6,17.6,0,0,1,7.49-2,15.73,15.73,0,0,1,7.28,1.49c2.26,1.06,3.35,2.21,3.25,3.46S256.06,336.16,253.65,337.38ZM242,331.94c-1.83.92-2.83,1.79-3,2.62s.47,1.59,2,2.29a9.43,9.43,0,0,0,4.74.86,14,14,0,0,0,5.3-1.57c1.81-.91,2.82-1.78,3-2.6s-.45-1.58-1.93-2.28a9.73,9.73,0,0,0-4.79-.87A14,14,0,0,0,242,331.94Z" id="SkDg7wfxvpz"/><path d="M258.94,347.06l2.6-2.78-5.83-2.72-5.6,1.37-2.63-1.22,20.57-4.83,2.71,1.27-9.17,10.15Zm4-4.14,2.6-2.7q.26-.27.84-.84c.4-.38.7-.65.9-.82-1,.33-2.2.66-3.55,1l-5.23,1.3Z" id="SJ_lXDGxvaG"/><path d="M283.54,351.23a16.93,16.93,0,0,1-7.7,1.85,18.83,18.83,0,0,1-8-1.85l-4.26-2,14.81-7.46,4.71,2.2c2.43,1.13,3.68,2.34,3.76,3.6S285.84,350.07,283.54,351.23ZM280.83,350q5.32-2.67.21-5.07l-2.16-1-10.75,5.42,1.77.83A11.91,11.91,0,0,0,280.83,350Z" id="HyYgXDzePTG"/><path d="M279.26,356.56l14.82-7.46,2.49,1.16-14.82,7.46Z" id="By5gQPzewaf"/><path d="M298.47,365.54l-3.05-1.43,4.31-9.45-.09,0-.6.36q-1.74,1-3.3,1.8l-7.7,3.88-2.26-1.06,14.81-7.46,3,1.42-4.27,9.4.06,0,1.62-.89c.93-.51,1.67-.91,2.22-1.18L311,357l2.28,1.06Z" id="BysxQvzxP6G"/><path d="M316.76,366.28l5.61,2.62-7.44,3.75a32.78,32.78,0,0,1-3.26-.93,28.33,28.33,0,0,1-2.92-1.18c-2.3-1.08-3.42-2.25-3.34-3.5s1.32-2.49,3.74-3.71a17.17,17.17,0,0,1,7.71-1.83,17.94,17.94,0,0,1,7.85,1.71,10.69,10.69,0,0,1,3.63,2.56l-2.89.61a7.79,7.79,0,0,0-2.88-2.16,11.75,11.75,0,0,0-5.35-1.05,13,13,0,0,0-5.49,1.39c-1.81.91-2.76,1.81-2.85,2.68s.66,1.68,2.26,2.43a22.17,22.17,0,0,0,2.88,1.06l3.82-1.93-3.16-1.47Z" id="rknxXPzlDTG"/><path d="M318.63,373.73a3.47,3.47,0,0,1,1.53-.39,3.36,3.36,0,0,1,1.54.34c.51.23.76.48.75.74s-.25.52-.72.75a3.59,3.59,0,0,1-1.55.39,3.32,3.32,0,0,1-1.57-.33c-.5-.23-.74-.48-.73-.74S318.14,374,318.63,373.73Z" id="BJalQwzgw6z"/><path d="M324.5,376.47a3.41,3.41,0,0,1,3.07-.05c.51.24.76.48.75.75s-.25.51-.73.75a3.54,3.54,0,0,1-1.54.38,3.4,3.4,0,0,1-1.57-.32c-.5-.24-.74-.49-.73-.75S324,376.71,324.5,376.47Z" id="rkAgXvMlDTf"/><path d="M330.37,379.21a3.47,3.47,0,0,1,1.52-.39,3.53,3.53,0,0,1,1.55.34c.5.24.75.49.74.75s-.25.51-.72.75a3.54,3.54,0,0,1-1.54.38,3.4,3.4,0,0,1-1.57-.32c-.5-.24-.75-.48-.73-.75S329.88,379.46,330.37,379.21Z" id="Sk1bXDfeP6M"/></g><g id="HJlWQPGlPTG"><g id="SJZ-7PGeP6f"><g id="SyMW7DMxPpG" data-name="21"><path id="r1Q-mwzxD6f" data-name="63" d="M405.15,263.4l6.26,2-33.93,24.95c-.31-.09-2.68-.88-3.1-1l-3.16-1,33.93-24.94"/><path id="SJ4bQvGlDaG" data-name="62" d="M388.77,259l6.65,1.66-28.5,26.49-3.3-.86-3.35-.81L388.77,259"/><path id="rkBbQvzxD6G" data-name="61" d="M372.67,255.61l7,1.35s-23.06,27.55-23.15,27.67l-3.45-.7-3.5-.65,23.14-27.67"/><path id="BJL-7vGlDpf" data-name="64" d="M419.52,268.25l5.83,2.27-38.68,23.27-2.88-1.16-3-1.11,38.68-23.27"/></g><g id="rkDbXPMlPpf" data-name="20"><path id="HkuZmPGgw6G" data-name="60" d="M355.91,253l7.19,1-17.56,28.6-3.58-.54-3.61-.47L355.91,253"/><path id="B1KbmvzxwpG" data-name="59" d="M338.76,251.21l7.37.67s-11.8,29.14-11.84,29.26l-3.67-.36-3.7-.31,11.84-29.26"/><path id="SJ9bQvflPTM" data-name="58" d="M320.08,250.18l7.48.3S322,280,322,280.15l-3.74-.18-3.74-.12,5.58-29.67"/></g><g id="B1obXDMxvpf" data-name="19"><path id="SynW7vGgPpf" data-name="57\" d="M302.5,250.07l7.51,0s.31,29.64.32,29.76h-3.76l-3.76.05-.31-29.76"/><path id="r16-7DfeP6M" data-name="56" d="M284.68,250.8l7.47-.41s6.27,29.46,6.31,29.58l-3.75.17-3.73.24-6.3-29.58"/><path id="BJCW7wMlw6M" data-name="55" d="M267.36,252.33l7.36-.75s12.08,29,12.14,29.12l-3.7.35-3.67.4-12.13-29.12"/></g><g id="SyJMmwMxvTM" data-name="18"><path id="Hygz7DfgPpz" data-name="54" d="M249.23,254.86l7.17-1.12,18.25,28.34-3.6.53-3.57.58-18.25-28.33"/><path id="SyWfQwzlv6z" data-name="53" d="M232.84,258l6.93-1.44,23.79,27.33-3.49.69-3.43.75L232.84,258"/><path id="HkzzXDflPpf" data-name="52" d="M217.08,262l6.61-1.76s29,26,29.14,26.06l-3.34.86c-.48.12-3.09.85-3.27.91L217.08,262"/></g><g id="SyQMQvGlv6G" data-name="17"><path id="HkEG7vGgP6G" data-name="51" d="M202.22,266.58l6.24-2.06,34.19,24.56-3.16,1c-.45.15-2.91,1-3.08,1.06l-34.19-24.56"/><path id="S1BMXDGeD6M" data-name="50" d="M187.39,272.27l5.78-2.36,39.24,22.7-2.93,1.16-2.84,1.2-39.25-22.7"/><path id="B1UfQDfxv6M" data-name="49" d="M174.69,278.22l5.28-2.61,43.59,20.74-2.69,1.29L218.28,299l-43.59-20.75"/></g><g id="HkPfQvGgw6z" data-name="16"><path id="r1dMmPMew6z" data-name="48" d="M163,284.85l4.73-2.85,47.6,18.56-2.42,1.4-2.32,1.45L163,284.85"/><path id="SyKzXvGeDpM" data-name="47" d="M152.9,291.87l4.16-3.06,51.09,16.24L206,306.56c-.31.22-1.92,1.45-2,1.55L152.9,291.87"/><path id="SJqz7PzgwTM" data-name="46" d="M143.64,299.86l3.49-3.24,54.32,13.58c-.17.16-1.57,1.39-1.8,1.61s-1.61,1.54-1.69,1.64l-54.32-13.59"/></g><g id="ryjfQvGlDpf" data-name="15"><path id="rknz7wfxwaG" data-name="45" d="M136.56,307.7l2.84-3.39,56.8,11c-.14.17-1.29,1.46-1.48,1.68s-1.29,1.61-1.36,1.71l-56.8-11"/><path id="Hkpz7DzlvTG" data-name="44" d="M131,315.86l2.15-3.5L192,320.62l-1.14,1.74c-.16.26-1,1.66-1,1.76L131,315.86"/><path id="r1CfmvGgP6z" data-name="43" d="M127.18,324.2l1.44-3.58,60.19,5.47c-.07.18-.69,1.55-.79,1.79s-.64,1.69-.66,1.8l-60.18-5.48"/></g><g id="HykQmvMlP6f" data-name="14"><path id="S1lmmDMxwpf" data-name="42" d="M124.88,333.28l.69-3.63,61.08,2.43c0,.18-.36,1.57-.41,1.81s-.27,1.72-.28,1.82l-61.08-2.43"/><path id="r1WX7PMeDTz" data-name="41" d="M124.49,341.81l0-3.64,61.33-.43c0,.18,0,1.58,0,1.82s.06,1.72.08,1.82l-61.33.43"/><path id="H1fQ7PMgwTG" data-name="40" d="M125.82,350.45l-.77-3.62,61-3.33c0,.18.27,1.57.32,1.81s.41,1.71.45,1.81l-61,3.33"/></g><g id="HyQQ7wGlv6z" data-name="13"><path id="BJ47XPMxwTM" data-name="39" d="M128.82,358.85l-1.48-3.57,60.12-6.16c.07.18.58,1.55.68,1.79s.74,1.68.8,1.78l-60.12,6.16"/><path id="r1rXQvzxvpG" data-name="38" d="M133.86,367.62l-2.23-3.47L190.18,355c.11.17.91,1.51,1.06,1.75s1.1,1.62,1.18,1.72l-58.56,9.12"/><path id="HJLQXvGxDaM" data-name="37" d="M140.23,375.55l-2.91-3.35,56.53-11.8,1.4,1.68c.21.25,1.42,1.57,1.52,1.66l-56.54,11.81"/></g><g id="B1wmmDGlvaG" data-name="12"><path id="Byum7PzgvTz" data-name="36" d="M148.19,383.16,144.62,380s53.75-14.32,54-14.39l1.73,1.62c.25.23,1.72,1.49,1.84,1.58l-54,14.38"/><path id="SkYQ7wGlw6M" data-name="35" d="M157.58,390.33l-4.19-3,50.93-16.82,2,1.52c.3.22,2,1.41,2.14,1.49l-50.92,16.82"/><path id="S15XXvMlwaM" data-name="34" d="M169.17,397.47l-4.81-2.78,47.14-19.25,2.35,1.41,2.45,1.37-47.13,19.25"/></g><g id="B1j77wfgvTM" data-name="11"><path id="BknXXPGeDpG" data-name="33" d="M181.32,403.59,176,401.05l43.15-21.35,2.62,1.29,2.71,1.25-43.14,21.35"/><path id="BkpmXvMew6z" data-name="32" d="M194.86,409.18,189,406.91l38.68-23.27,2.88,1.16,2.95,1.11-38.68,23.27"/><path id="ryR7mvfePpG" data-name="31" d="M209.23,414,203,412,236.9,387.1c.31.09,2.68.88,3.1,1l3.16,1L209.23,414"/></g><g id="HJy4QDMgDaG" data-name="10"><path id="rJxE7wzgDpz" data-name="30" d="M225.61,418.45,219,416.79l28.5-26.49,3.3.86,3.35.81-28.5,26.48"/><path id="rkZ4mDzePaG" data-name="29" d="M241.71,421.82l-7-1.35s23.06-27.55,23.15-27.67l3.45.7,3.5.65-23.14,27.67"/><path id="SkzNXwMxPaz" data-name="28" d="M258.47,424.42l-7.19-1,17.56-28.6c.35.05,3.1.47,3.58.53s3.4.46,3.61.48l-17.56,28.6"/></g><g id="S1XEmvfgwaG" data-name="9"><path id="HJEVQPzeP6M" data-name="27" d="M275.62,426.22l-7.37-.67s11.8-29.14,11.84-29.26l3.67.36,3.7.31-11.84,29.26"/><path id="HkB4mDzePaf" data-name="26" d="M294.3,427.25l-7.48-.3s5.57-29.55,5.58-29.67l3.74.18,3.74.12-5.58,29.67"/><path id="HJLEmvGxvpG" data-name="25" d="M311.88,427.36l-7.51.05s-.31-29.64-.32-29.76h3.76l3.76,0,.31,29.76"/></g><g id="ByD4mvzgwaz" data-name="8"><path id="BydE7DGgDpf" data-name="24" d="M329.7,426.63l-7.47.41s-6.27-29.46-6.31-29.58l3.75-.17,3.73-.24,6.3,29.58"/><path id="BytVmPGgwTf" data-name="23" d="M347,425.1l-7.36.75s-12.08-29-12.14-29.12l3.7-.35,3.67-.4L347,425.1"/><path id="HJcN7wzlPpz" data-name="22" d="M365.15,422.57,358,423.69l-18.25-28.34,3.6-.53,3.57-.58,18.25,28.33"/></g><g id="SJiEXDzxwaf" data-name="7"><path id="Sk247vGlPTG" data-name="21" d="M381.54,419.41l-6.93,1.44-23.79-27.33,3.48-.69,3.44-.75,23.8,27.33"/><path id="HyaEQPflv6f" data-name="20" d="M397.3,415.48l-6.61,1.76-29.14-26.07,3.34-.85,3.27-.91,29.14,26.07"/><path id="ByA4Xwzxwpf" data-name="19" d="M412.16,410.85l-6.24,2.06-34.19-24.56,3.16-1c.45-.15,2.91-1,3.08-1.06l34.19,24.56"/></g><g id="r1Jr7wGewpf" data-name="6"><path id="HylBmwfgP6f" data-name="18" d="M427,405.16l-5.78,2.36L382,384.82l2.93-1.16,2.84-1.2L427,405.16"/><path id="BJbB7DfxPaG" data-name="17" d="M439.69,399.21l-5.28,2.61-43.59-20.74,2.69-1.29,2.59-1.33,43.59,20.75"/><path id="B1MBQvGeD6G" data-name="16" d="M451.35,392.58l-4.74,2.85L399,376.87l2.42-1.4,2.32-1.45,47.59,18.56"/></g><g id="HkQrXwGgDTz" data-name="5"><path id="r1ESXwfgwaf" data-name="15" d="M461.48,385.56l-4.16,3.06-51.09-16.24,2.13-1.51c.3-.22,1.92-1.45,2-1.55l51.09,16.24"/><path id="HkrrQvMxwTM" data-name="14" d="M470.73,377.57l-3.49,3.24-54.31-13.58,1.8-1.61c.26-.24,1.61-1.54,1.69-1.64l54.31,13.59"/><path id="SyUrXPzxDTM" data-name="13" d="M477.82,369.73,475,373.12l-56.8-11c.14-.17,1.29-1.46,1.48-1.69s1.29-1.6,1.36-1.7l56.8,11"/></g><g id="SJPrXwGeDaz" data-name="4"><path id="BJdS7wGgvpM" data-name="12" d="M483.34,361.57l-2.15,3.5-58.77-8.26,1.14-1.74c.16-.26,1-1.66,1-1.76l58.77,8.26"/><path id="ryKBmDGxwpf" data-name="11" d="M487.2,353.22l-1.45,3.59s-59.93-5.46-60.18-5.47c.07-.18.69-1.55.79-1.79s.64-1.69.66-1.8l60.18,5.47"/><path id="ByqHQDGxwpf" data-name="10" d="M489.5,344.15l-.69,3.63-61.08-2.43c0-.18.36-1.57.41-1.82s.27-1.71.28-1.81l61.08,2.43"/></g><g id="S1orQPGlw6f" data-name="3"><path id="BkhS7PGgv6f" data-name="9" d="M489.89,335.62l0,3.64-61.34.43c0-.18.05-1.58.05-1.82s-.07-1.72-.08-1.82l61.33-.43"/><path id="B1arQvzeD6f" data-name="8" d="M488.56,327l.77,3.62-61,3.33c0-.18-.27-1.57-.32-1.81s-.41-1.71-.45-1.81l61-3.33"/><path id="Hk0BQvMxPTz" data-name="7" d="M485.56,318.58l1.48,3.57-60.12,6.16c-.07-.18-.58-1.55-.68-1.79s-.75-1.68-.81-1.78l60.13-6.16"/></g><g id="B1y87vGxPTz" data-name="2"><path id="B1eI7vflDpz" data-name="6" d="M480.52,309.81l2.23,3.47L424.2,322.4c-.11-.17-.92-1.51-1.06-1.75S422,319,422,318.93l58.56-9.12"/><path id="HJZ8Qwflvaf" data-name="5" d="M474.15,301.88l2.91,3.35L420.53,317l-1.4-1.68c-.21-.25-1.42-1.57-1.52-1.67l56.54-11.8"/><path id="BkfIQvGlDaf" data-name="4" d="M466.19,294.27l3.57,3.19-54,14.38c-.18-.15-1.49-1.39-1.73-1.61s-1.72-1.49-1.84-1.58l54-14.38"/></g><g id="rymU7DflP6M" data-name="1"><path id="HJ48XDfgwaM" data-name="3" d="M456.8,287.1l4.19,3-50.93,16.82-2-1.52c-.3-.22-2-1.41-2.14-1.49L456.8,287.1"/><path id="SkHI7DGxwaM" data-name="2" d="M445.21,280l4.81,2.78L402.88,302l-2.35-1.41-2.45-1.37L445.21,280"/><path id="Sy8L7vGePaG" data-name="1" d="M433.06,273.84l5.34,2.54-43.15,21.35-2.62-1.29-2.72-1.25,43.15-21.35"/></g></g></g><script>(function(){var a=document.querySelector('#Hy7wzePpM'),b=a.querySelectorAll('style'),c=function(d){b.forEach(function(f){var g=f.textContent;g&amp;&amp;(f.textContent=g.replace(/transform-box:[^;\r\n]*/gi,'transform-box: '+d))})};c('initial'),window.requestAnimationFrame(function(){return c('fill-box')})})();</script></svg>