<svg id="HJbcMByaG" data-name="Layer 1" xmlns="http://www.w3.org/2000/svg" xmlns:xlink="http://www.w3.org/1999/xlink" viewBox="0 0 600 421"><style>@-webkit-keyframes ryKwZ5GS1aM_Animation{0%,5.28%{opacity:.7}6.11%,99.44%{opacity:1}to{opacity:0}}@keyframes ryKwZ5GS1aM_Animation{0%,5.28%{opacity:.7}6.11%,99.44%{opacity:1}to{opacity:0}}@-webkit-keyframes SkSw-qGBypf_Animation{0%,5.28%,to{opacity:0}6.11%,8.06%{opacity:1}10.83%,99.44%{opacity:.7}}@keyframes SkSw-qGBypf_Animation{0%,5.28%,to{opacity:0}6.11%,8.06%{opacity:1}10.83%,99.44%{opacity:.7}}@-webkit-keyframes B1EPZqzSkaz_Animation{0%,5.56%,to{opacity:0}6.11%,8.06%{opacity:1}10.83%,99.72%{opacity:.7}}@keyframes B1EPZqzSkaz_Animation{0%,5.56%,to{opacity:0}6.11%,8.06%{opacity:1}10.83%,99.72%{opacity:.7}}@-webkit-keyframes HypI-qMSJ6f_Animation{0%,8.06%,to{opacity:0}9.17%,99.44%{opacity:1}}@keyframes HypI-qMSJ6f_Animation{0%,8.06%,to{opacity:0}9.17%,99.44%{opacity:1}}@-webkit-keyframes H1tUW9MSkTM_Animation{0%,10.83%,to{opacity:0}11.39%,99.72%{opacity:1}}@keyframes H1tUW9MSkTM_Animation{0%,10.83%,to{opacity:0}11.39%,99.72%{opacity:1}}@-webkit-keyframes S1r8-5fH1af_Animation{0%,13.61%,to{opacity:0}14.72%,99.72%{opacity:1}}@keyframes S1r8-5fH1af_Animation{0%,13.61%,to{opacity:0}14.72%,99.72%{opacity:1}}@-webkit-keyframes rk-UWcGr1TG_Animation{0%,16.94%,to{opacity:0}17.78%,99.72%{opacity:1}}@keyframes rk-UWcGr1TG_Animation{0%,16.94%,to{opacity:0}17.78%,99.72%{opacity:1}}@-webkit-keyframes SypBW9GHJaf_Animation{0%,20.83%,to{opacity:0}21.67%,99.72%{opacity:1}}@keyframes SypBW9GHJaf_Animation{0%,20.83%,to{opacity:0}21.67%,99.72%{opacity:1}}@-webkit-keyframes HyYB-5GH16f_Animation{0%,26.67%,to{opacity:0}27.5%,99.44%{opacity:1}}@keyframes HyYB-5GH16f_Animation{0%,26.67%,to{opacity:0}27.5%,99.44%{opacity:1}}@-webkit-keyframes B1HSbczrJ6G_Animation{0%,31.11%,to{opacity:0}31.67%,99.44%{opacity:1}}@keyframes B1HSbczrJ6G_Animation{0%,31.11%,to{opacity:0}31.67%,99.44%{opacity:1}}@-webkit-keyframes r1bHW9Mrypf_Animation{0%,35.28%,to{opacity:0}36.11%,99.44%{opacity:1}}@keyframes r1bHW9Mrypf_Animation{0%,35.28%,to{opacity:0}36.11%,99.44%{opacity:1}}@-webkit-keyframes rk64W9zrkaM_Animation{0%,40%,to{opacity:0}40.83%,99.17%{opacity:1}}@keyframes rk64W9zrkaM_Animation{0%,40%,to{opacity:0}40.83%,99.17%{opacity:1}}@-webkit-keyframes SyFVZ9zSy6z_Animation{0%,45.28%,to{opacity:0}46.11%,99.44%{opacity:1}}@keyframes SyFVZ9zSy6z_Animation{0%,45.28%,to{opacity:0}46.11%,99.44%{opacity:1}}@-webkit-keyframes SySVZczBJaz_Animation{0%,51.11%,to{opacity:0}52.22%,99.44%{opacity:1}}@keyframes SySVZczBJaz_Animation{0%,51.11%,to{opacity:0}52.22%,99.44%{opacity:1}}@-webkit-keyframes rJb4Z5MHypG_Animation{0%,57.22%,to{opacity:0}58.33%,99.72%{opacity:1}}@keyframes rJb4Z5MHypG_Animation{0%,57.22%,to{opacity:0}58.33%,99.72%{opacity:1}}@-webkit-keyframes SypX-cfByTf_Animation{0%,62.78%{opacity:0}63.61%,99.72%,to{opacity:1}}@keyframes SypX-cfByTf_Animation{0%,62.78%{opacity:0}63.61%,99.72%,to{opacity:1}}@-webkit-keyframes SkYQZqzByTf_Animation{0%,66.39%,to{opacity:0}67.5%,99.72%{opacity:1}}@keyframes SkYQZqzByTf_Animation{0%,66.39%,to{opacity:0}67.5%,99.72%{opacity:1}}@-webkit-keyframes H1Sm-9GSy6f_Animation{0%,69.72%,to{opacity:0}70.56%,99.72%{opacity:1}}@keyframes H1Sm-9GSy6f_Animation{0%,69.72%,to{opacity:0}70.56%,99.72%{opacity:1}}@-webkit-keyframes SJ-QZqMrJaM_Animation{0%,73.33%,to{opacity:0}74.17%,99.72%{opacity:1}}@keyframes SJ-QZqMrJaM_Animation{0%,73.33%,to{opacity:0}74.17%,99.72%{opacity:1}}@-webkit-keyframes HkTGb5fBy6G_Animation{0%,76.11%,to{opacity:0}76.94%,99.44%{opacity:1}}@keyframes HkTGb5fBy6G_Animation{0%,76.11%,to{opacity:0}76.94%,99.44%{opacity:1}}@-webkit-keyframes Sytf-9frJpG_Animation{0%,78.33%,to{opacity:0}79.17%,99.44%{opacity:1}}@keyframes Sytf-9frJpG_Animation{0%,78.33%,to{opacity:0}79.17%,99.44%{opacity:1}}@-webkit-keyframes SySz-qfHJ6z_Animation{0%,81.39%,to{opacity:0}82.22%,99.44%{opacity:1}}@keyframes SySz-qfHJ6z_Animation{0%,81.39%,to{opacity:0}82.22%,99.44%{opacity:1}}@-webkit-keyframes HJZMbcGSkpz_Animation{0%,84.72%,to{opacity:0}86.39%,99.44%{opacity:1}}@keyframes HJZMbcGSkpz_Animation{0%,84.72%,to{opacity:0}86.39%,99.44%{opacity:1}}@-webkit-keyframes rJnbZ5zB1az_Animation{0%,89.17%,to{opacity:0}90.56%,99.44%{opacity:1}}@keyframes rJnbZ5zB1az_Animation{0%,89.17%,to{opacity:0}90.56%,99.44%{opacity:1}}@-webkit-keyframes SyuWWqGryaG_Animation{0%,90.56%,to{opacity:0}91.94%,99.44%{opacity:1}}@keyframes SyuWWqGryaG_Animation{0%,90.56%,to{opacity:0}91.94%,99.44%{opacity:1}}@-webkit-keyframes S18Wb5Gr1az_Animation{0%,76.67%,91.67%,to{opacity:0}77.78%,90.28%{opacity:1}}@keyframes S18Wb5Gr1az_Animation{0%,76.67%,91.67%,to{opacity:0}77.78%,90.28%{opacity:1}}@-webkit-keyframes ByNW-qGHkTz_Animation{0%,60.28%,77.78%,to{opacity:0}61.39%,76.39%{opacity:1}}@keyframes ByNW-qGHkTz_Animation{0%,60.28%,77.78%,to{opacity:0}61.39%,76.39%{opacity:1}}@-webkit-keyframes HJzbbcfByTf_Animation{0%,42.5%,61.39%,to{opacity:0}43.61%,60%{opacity:1}}@keyframes HJzbbcfByTf_Animation{0%,42.5%,61.39%,to{opacity:0}43.61%,60%{opacity:1}}@-webkit-keyframes SJg-ZqfB1aG_Animation{0%,26.67%,43.89%,to{opacity:0}27.5%,42.78%{opacity:1}}@keyframes SJg-ZqfB1aG_Animation{0%,26.67%,43.89%,to{opacity:0}27.5%,42.78%{opacity:1}}@-webkit-keyframes BkAlW9GH1aG_Animation{0%,15.28%,27.5%{opacity:0}16.11%,26.67%{opacity:1}}@keyframes BkAlW9GH1aG_Animation{0%,15.28%,27.5%{opacity:0}16.11%,26.67%{opacity:1}}@-webkit-keyframes r12lWqGHyTG_rkhKIH1af_Animation{0%,19.72%,to{-webkit-transform:translate(5px,-1px);transform:translate(5px,-1px)}}@keyframes r12lWqGHyTG_rkhKIH1af_Animation{0%,19.72%,to{-webkit-transform:translate(5px,-1px);transform:translate(5px,-1px)}}@-webkit-keyframes r12lWqGHyTG_Animation{0%,16.11%,8.89%,to{opacity:0}15.28%,9.44%{opacity:1}}@keyframes r12lWqGHyTG_Animation{0%,16.11%,8.89%,to{opacity:0}15.28%,9.44%{opacity:1}}@-webkit-keyframes B1og-9MSyTM_SJDQ8HyTz_Animation{0%,to{-webkit-transform:translate(5px,13px);transform:translate(5px,13px)}}@keyframes B1og-9MSyTM_SJDQ8HyTz_Animation{0%,to{-webkit-transform:translate(5px,13px);transform:translate(5px,13px)}}@-webkit-keyframes SJdx-qGSk6z_SyFvRByTz_Animation{0%,to{-webkit-transform:translate(7px,8px);transform:translate(7px,8px)}}@keyframes SJdx-qGSk6z_SyFvRByTz_Animation{0%,to{-webkit-transform:translate(7px,8px);transform:translate(7px,8px)}}@-webkit-keyframes rk9Z9MrJaz_BkgZWLkaG_Animation{0%,to{-webkit-transform:translate(0,0);transform:translate(0,0)}}@keyframes rk9Z9MrJaz_BkgZWLkaG_Animation{0%,to{-webkit-transform:translate(0,0);transform:translate(0,0)}}@-webkit-keyframes HkYW9fBJ6M_rJ7QeL1pM_Animation{0%,50.28%,to{-webkit-transform:translate(0,0);transform:translate(0,0)}25%{-webkit-transform:translate(0,18px);transform:translate(0,18px)}75%{-webkit-transform:translate(0,-18px);transform:translate(0,-18px)}}@keyframes HkYW9fBJ6M_rJ7QeL1pM_Animation{0%,50.28%,to{-webkit-transform:translate(0,0);transform:translate(0,0)}25%{-webkit-transform:translate(0,18px);transform:translate(0,18px)}75%{-webkit-transform:translate(0,-18px);transform:translate(0,-18px)}}@-webkit-keyframes B1u-9fryTG_SkhIeLk6G_Animation{0%,50.28%,to{-webkit-transform:translate(0,0);transform:translate(0,0)}25%{-webkit-transform:translate(0,12px);transform:translate(0,12px)}75%{-webkit-transform:translate(0,-12px);transform:translate(0,-12px)}}@keyframes B1u-9fryTG_SkhIeLk6G_Animation{0%,50.28%,to{-webkit-transform:translate(0,0);transform:translate(0,0)}25%{-webkit-transform:translate(0,12px);transform:translate(0,12px)}75%{-webkit-transform:translate(0,-12px);transform:translate(0,-12px)}}@-webkit-keyframes B1P-9zHJaG_rJDUfLJTf_Animation{0%,50%,to{-webkit-transform:translate(0,0);transform:translate(0,0)}25%{-webkit-transform:translate(0,8px);transform:translate(0,8px)}75%{-webkit-transform:translate(0,-8px);transform:translate(0,-8px)}}@keyframes B1P-9zHJaG_rJDUfLJTf_Animation{0%,50%,to{-webkit-transform:translate(0,0);transform:translate(0,0)}25%{-webkit-transform:translate(0,8px);transform:translate(0,8px)}75%{-webkit-transform:translate(0,-8px);transform:translate(0,-8px)}}@-webkit-keyframes HkIWqfSJpG_rJHOlSMI1aG_Animation{0%,50%,to{-webkit-transform:translate(0,0);transform:translate(0,0)}25%{-webkit-transform:translate(0,3px);transform:translate(0,3px)}75%{-webkit-transform:translate(0,-3px);transform:translate(0,-3px)}}@keyframes HkIWqfSJpG_rJHOlSMI1aG_Animation{0%,50%,to{-webkit-transform:translate(0,0);transform:translate(0,0)}25%{-webkit-transform:translate(0,3px);transform:translate(0,3px)}75%{-webkit-transform:translate(0,-3px);transform:translate(0,-3px)}}@-webkit-keyframes BkBW5fSypz_Sk3vWUyaz_Animation{0%,50%,to{-webkit-transform:translate(0,0);transform:translate(0,0)}25%{-webkit-transform:translate(0,1px);transform:translate(0,1px)}75%{-webkit-transform:translate(0,-1px);transform:translate(0,-1px)}}@keyframes BkBW5fSypz_Sk3vWUyaz_Animation{0%,50%,to{-webkit-transform:translate(0,0);transform:translate(0,0)}25%{-webkit-transform:translate(0,1px);transform:translate(0,1px)}75%{-webkit-transform:translate(0,-1px);transform:translate(0,-1px)}}@-webkit-keyframes rkeZ9zHkpf_Animation{0%,10.83%,5.28%,to{opacity:.2}5.83%,8.33%{opacity:.28}}@keyframes rkeZ9zHkpf_Animation{0%,10.83%,5.28%,to{opacity:.2}5.83%,8.33%{opacity:.28}}#HJbcMByaG *{-webkit-animation-duration:12s;animation-duration:12s;-webkit-animation-iteration-count:infinite;animation-iteration-count:infinite;-webkit-animation-timing-function:cubic-bezier(0,0,1,1);animation-timing-function:cubic-bezier(0,0,1,1)}#H14-qGS16z_Hydpg8kTG{-webkit-transform-origin:50% 50%;transform-origin:50% 50%;transform-box:fill-box}</style><defs><linearGradient id="linear-gradient" x1="176.11" y1="443.35" x2="180.85" y2="430.32" gradientUnits="userSpaceOnUse"><stop offset="0" stop-color="#2af0ff"/><stop offset=".07" stop-color="#25f2ff" stop-opacity=".87"/><stop offset=".22" stop-color="#1bf5ff" stop-opacity=".65"/><stop offset=".36" stop-color="#13f8ff" stop-opacity=".45"/><stop offset=".5" stop-color="#0cfbff" stop-opacity=".29"/><stop offset=".64" stop-color="#07fdff" stop-opacity=".16"/><stop offset=".77" stop-color="#03feff" stop-opacity=".07"/><stop offset=".89" stop-color="#01ffff" stop-opacity=".02"/><stop offset="1" stop-color="#0ff" stop-opacity="0"/></linearGradient><linearGradient id="linear-gradient-2" x1="413.92" y1="331.37" x2="413.92" y2="270.31" gradientUnits="userSpaceOnUse"><stop offset="0" stop-color="#2af0ff"/><stop offset=".05" stop-color="#25f2ff" stop-opacity=".89"/><stop offset=".15" stop-color="#1df5ff" stop-opacity=".68"/><stop offset=".26" stop-color="#15f7ff" stop-opacity=".5"/><stop offset=".37" stop-color="#0ffaff" stop-opacity=".35"/><stop offset=".48" stop-color="#09fcff" stop-opacity=".22"/><stop offset=".6" stop-color="#05fdff" stop-opacity=".12"/><stop offset=".72" stop-color="#02feff" stop-opacity=".05"/><stop offset=".85" stop-color="#01ffff" stop-opacity=".01"/><stop offset="1" stop-color="#0ff" stop-opacity="0"/></linearGradient><linearGradient id="linear-gradient-3" x1="241.29" y1="468.4" x2="241.29" y2="409.59" xlink:href="#linear-gradient-2"/><linearGradient id="linear-gradient-4" x1="140.7" y1="424.02" x2="140.7" y2="365.21" xlink:href="#linear-gradient-2"/></defs><title>Phone_ill</title><g style="-webkit-animation-name:rkeZ9zHkpf_Animation;animation-name:rkeZ9zHkpf_Animation;-webkit-transform-origin:50% 50%;transform-origin:50% 50%;transform-box:fill-box" opacity=".2"/><g opacity=".7"><g id="H1QbqMBJaG"><path data-name="1" d="M212 494.21L94.26 440.3c-11.26-5.33-7.41-15.51 6-21.61l273.37-122.57c13.37-6.1 30.76-8 42-2.64L533 347.74c11.25 5.33 9.52 14.68-3.85 20.78L256.74 492.81c-13.37 6.1-33.52 6.73-44.74 1.4z" style="-webkit-transform:translate(24px,-203.99px);transform:translate(24px,-203.99px)" fill="#0399ff"/><g data-animator-group="true" data-animator-type="0" style="-webkit-animation-name:BkBW5fSypz_Sk3vWUyaz_Animation;animation-name:BkBW5fSypz_Sk3vWUyaz_Animation;-webkit-transform-origin:50% 50%;transform-origin:50% 50%;transform-box:fill-box;-webkit-transform:translate(0,0);transform:translate(0,0)"><path data-name="2" d="M211.84 477.25l-117.49-54c-11.26-5.33-8.65-15.93 4.72-22L373 277.81c13.37-6.1 32.45-6.11 43.7-.78l116.18 53.75c11.25 5.33 9.52 14.68-3.85 20.78L256.6 475.84c-13.37 6.1-33.51 6.73-44.76 1.41z" style="-webkit-transform:translate(24px,-203.99px);transform:translate(24px,-203.99px)" fill="#00fff8" opacity=".3"/></g><g data-animator-group="true" data-animator-type="0" style="-webkit-animation-name:HkIWqfSJpG_rJHOlSMI1aG_Animation;animation-name:HkIWqfSJpG_rJHOlSMI1aG_Animation;-webkit-transform-origin:50% 50%;transform-origin:50% 50%;transform-box:fill-box;-webkit-transform:translate(0,0);transform:translate(0,0)"><path data-name="3" d="M211.77 459.71L94 405.11c-11.62-5.43-7.67-15.09 5.7-21.19l274.67-122c13.37-6.1 30.11-8.6 41.36-3.28l117 54.63c11.25 5.33 9.52 14.68-3.85 20.78L256.53 458.31c-13.37 6.1-33.53 6.69-44.76 1.4z" style="-webkit-transform:translate(24px,-203.99px);transform:translate(24px,-203.99px)" fill="#00fff8" opacity=".23"/></g><g data-animator-group="true" data-animator-type="0" style="-webkit-animation-name:B1P-9zHJaG_rJDUfLJTf_Animation;animation-name:B1P-9zHJaG_rJDUfLJTf_Animation;-webkit-transform-origin:50% 50%;transform-origin:50% 50%;transform-box:fill-box;-webkit-transform:translate(0,0);transform:translate(0,0)"><path data-name="4" d="M212.11 441.92L94.39 388.15c-11.25-5.33-7.78-15.74 5.59-21.84l274.07-122.49c13.37-6.1 31.16-7.63 42.41-2.3l116.67 53.94c11.26 5.32 9.52 14.68-3.85 20.78l-272.4 124.28c-13.37 6.1-33.52 6.73-44.77 1.4z" style="-webkit-transform:translate(24px,-203.99px);transform:translate(24px,-203.99px)" fill="#00fff8" opacity=".2"/></g><g data-animator-group="true" data-animator-type="0" style="-webkit-animation-name:B1u-9fryTG_SkhIeLk6G_Animation;animation-name:B1u-9fryTG_SkhIeLk6G_Animation;-webkit-transform-origin:50% 50%;transform-origin:50% 50%;transform-box:fill-box;-webkit-transform:translate(0,0);transform:translate(0,0)"><path data-name="5" d="M212 425.55L94.49 371.6c-11.25-5.33-8-15.68 5.33-21.78L373.63 226.9c13.37-6.1 31.1-7.13 42.35-1.8l117 54c11.26 5.33 9.52 14.68-3.85 20.78L256.76 424.15c-13.37 6.1-33.52 6.73-44.76 1.4z" style="-webkit-transform:translate(24px,-203.99px);transform:translate(24px,-203.99px)" fill="#00fff8" opacity=".1"/></g><g data-animator-group="true" data-animator-type="0" style="-webkit-animation-name:HkYW9fBJ6M_rJ7QeL1pM_Animation;animation-name:HkYW9fBJ6M_rJ7QeL1pM_Animation;-webkit-transform-origin:50% 50%;transform-origin:50% 50%;transform-box:fill-box;-webkit-transform:translate(0,0);transform:translate(0,0)"><path data-name="6" d="M212.68 407.73L95.43 353.38c-11.83-5.84-10.22-15.67 4.11-22.21l274.85-122.34c13.37-6.1 30.29-6.42 41.55-1.09l117.76 53.52c11.26 5.33 9.52 14.68-3.85 20.78l-272.4 124.29c-13.37 6.1-33.51 6.73-44.77 1.4z" style="-webkit-transform:translate(24px,-203.99px);transform:translate(24px,-203.99px)" fill="#00fff8" opacity=".1"/></g></g><g data-animator-group="true" data-animator-type="0" style="-webkit-animation-name:rk9Z9MrJaz_BkgZWLkaG_Animation;animation-name:rk9Z9MrJaz_BkgZWLkaG_Animation;-webkit-transform-origin:50% 50%;transform-origin:50% 50%;transform-box:fill-box;-webkit-transform:translate(0,0);transform:translate(0,0)"><g id="rk9Z9MrJaz" fill="#0af"><g id="BksbqMBJaz"><ellipse data-name="2" cx="154.15" cy="526.53" rx="3.91" ry="8.65" style="-webkit-transform:translate(-357.93px,439.23px) rotate(-85.96deg);transform:translate(-357.93px,439.23px) rotate(-85.96deg)"/><ellipse data-name="3" cx="348.39" cy="492.37" rx="3.91" ry="8.65" style="-webkit-transform:matrix(.07,-1,1,.07,-143.29,601.24);transform:matrix(.07,-1,1,.07,-143.29,601.24)"/><ellipse data-name="4" cx="509.82" cy="419.28" rx="3.91" ry="8.65" style="-webkit-transform:translate(79.69px,694.33px) rotate(-85.96deg);transform:translate(79.69px,694.33px) rotate(-85.96deg)"/><ellipse data-name="1" cx="44.72" cy="479.34" rx="3.91" ry="8.65" style="-webkit-transform:translate(-412.58px,286.21px) rotate(-85.96deg);transform:translate(-412.58px,286.21px) rotate(-85.96deg)"/></g><g id="rJglWqfHkpf"><path data-name="1" d="M125.77 453.39s-15 6.72-20 9.06a3.54 3.54 0 0 1-2.36.24c-.6-.18-11.69-5.05-14.47-6.37s-3.81-.85-5.17-.24l-33.08 15c-1.1 3.27 8.83 5.88 11.14 5.1 1-.34 21.67-9.83 21.67-9.83.92-.43 3 .82 3 .82L98.82 473a10.7 10.7 0 0 0 8.32.09l30.74-13.94z" style="-webkit-transform:translate(24px,-203.99px);transform:translate(24px,-203.99px)"/><path data-name="2" d="M189.08 483.37l11.85 5.63s-18.23 8-19.12 8.49c-.7.41-.61.81-.5 1.09.52.26 16.83 7.8 17.65 8.19s.43 1.77 0 2.15c-1.91.86-29.2 13.55-30.13 13.72-4.7 1.6-13.38-2.58-11.58-5 .87-.27 15.56-7.59 17.21-8.22 2.53-1 2-1.51 2-1.51l-17.64-8.37c-1.5-.71-.6-2.38.37-2.82.35-.26 29.89-13.35 29.89-13.35z" style="-webkit-transform:translate(24px,-203.99px);transform:translate(24px,-203.99px)"/><path data-name="3" d="M317.3 464.38s9.09 4.12 9.81 4.38c.9.34 1.26 1 .39 1.36-2.07.95-16.44 7.43-17.38 7.89a1.05 1.05 0 0 0 0 2c1 .5 18.64 8.88 18.64 8.88 3 1.6 16.47-2.75 11.64-5.3 0 0-8.91-4.21-9.2-4.36-1.26-.66.6-1.34 1.65-1.8l14.95-6.64c1.06-.65 0-2.32-.61-2.81s-18.87-8.75-18.87-8.75z" style="-webkit-transform:translate(24px,-203.99px);transform:translate(24px,-203.99px)"/><path data-name="4" d="M439.27 409.33s18.07 8.41 19.33 9.07a7.11 7.11 0 0 0 4.74-.41c1.36-.66 17.18-7.95 17.18-7.95a3.89 3.89 0 0 1 2.61.6c1.34.59 8.94 4.14 8.94 4.14 3.16 1.71 14.84-3.23 10.85-5L483.57 401c-1.28-.54-2.71-.29-4.46.51 0 0-15.08 7.41-16.08 7.85s-1.44.91-2.77.36l-10.51-5.07z" style="-webkit-transform:translate(24px,-203.99px);transform:translate(24px,-203.99px)"/></g></g></g></g><g visibility="hidden"><ellipse cx="413.78" cy="317.34" rx="5.57" ry="13.07" style="-webkit-transform:translate(116.85px,524.36px) rotate(-89.5deg);transform:translate(116.85px,524.36px) rotate(-89.5deg)" fill="#02fdfa"/><ellipse cx="413.78" cy="317.34" rx="10.99" ry="25.8" style="-webkit-transform:translate(116.85px,524.36px) rotate(-89.5deg);transform:translate(116.85px,524.36px) rotate(-89.5deg)" fill="none" stroke="#02fdfa" stroke-miterlimit="10" stroke-width="6"/></g><g data-animator-group="true" data-animator-type="0" style="-webkit-animation-name:SJdx-qGSk6z_SyFvRByTz_Animation;animation-name:SJdx-qGSk6z_SyFvRByTz_Animation;-webkit-transform-origin:50% 50%;transform-origin:50% 50%;transform-box:fill-box;-webkit-transform:translate(7px,8px);transform:translate(7px,8px)"><g id="SJdx-qGSk6z" data-name="Screen elements"><g visibility="hidden"><text style="-webkit-transform:matrix(.92,.43,-.89,.45,351.33,173.56);transform:matrix(.92,.43,-.89,.45,351.33,173.56)" fill="#02fdfa" font-size="20.54" font-family="OpenSans-SemiBold,Open Sans" font-weight="700">%</text><g data-animator-group="true" data-animator-type="0" style="-webkit-animation-name:B1og-9MSyTM_SJDQ8HyTz_Animation;animation-name:B1og-9MSyTM_SJDQ8HyTz_Animation;-webkit-transform-origin:50% 50%;transform-origin:50% 50%;transform-box:fill-box;-webkit-transform:translate(5px,13px);transform:translate(5px,13px)"><g id="B1og-9MSyTM"><g data-animator-group="true" data-animator-type="0" style="-webkit-animation-name:r12lWqGHyTG_rkhKIH1af_Animation;animation-name:r12lWqGHyTG_rkhKIH1af_Animation;-webkit-transform-origin:50% 50%;transform-origin:50% 50%;transform-box:fill-box;-webkit-transform:translate(5px,-1px);transform:translate(5px,-1px)"><text style="-webkit-transform:matrix(.92,.43,-.89,.45,318.58,157.22);transform:matrix(.92,.43,-.89,.45,318.58,157.22);-webkit-animation-name:r12lWqGHyTG_Animation;animation-name:r12lWqGHyTG_Animation;-webkit-transform-origin:50% 50%;transform-origin:50% 50%;transform-box:fill-box" fill="#02fdfa" font-size="20.54" font-family="OpenSans-SemiBold,Open Sans" font-weight="700" opacity="0"><tspan id="SkpxZ9Gr1az">1</tspan></text></g><text style="-webkit-transform:matrix(.92,.43,-.89,.45,313.2,154.7);transform:matrix(.92,.43,-.89,.45,313.2,154.7);-webkit-animation-name:BkAlW9GH1aG_Animation;animation-name:BkAlW9GH1aG_Animation;-webkit-transform-origin:50% 50%;transform-origin:50% 50%;transform-box:fill-box" fill="#02fdfa" font-size="20.54" font-family="OpenSans-SemiBold,Open Sans" font-weight="700" opacity="0"><tspan id="BJJbW9MrJaz">20</tspan></text><text style="-webkit-transform:matrix(.92,.43,-.89,.45,313.2,154.7);transform:matrix(.92,.43,-.89,.45,313.2,154.7);-webkit-animation-name:SJg-ZqfB1aG_Animation;animation-name:SJg-ZqfB1aG_Animation;-webkit-transform-origin:50% 50%;transform-origin:50% 50%;transform-box:fill-box" fill="#02fdfa" font-size="20.54" font-family="OpenSans-SemiBold,Open Sans" font-weight="700" opacity="0"><tspan id="B1-ZbcMr16f">35</tspan></text><text style="-webkit-transform:matrix(.92,.43,-.89,.45,313.2,154.7);transform:matrix(.92,.43,-.89,.45,313.2,154.7);-webkit-animation-name:HJzbbcfByTf_Animation;animation-name:HJzbbcfByTf_Animation;-webkit-transform-origin:50% 50%;transform-origin:50% 50%;transform-box:fill-box" fill="#02fdfa" font-size="20.54" font-family="OpenSans-SemiBold,Open Sans" font-weight="700" opacity="0"><tspan id="B17WW5MBy6G">46</tspan></text><text style="-webkit-transform:matrix(.92,.43,-.89,.45,313.2,154.7);transform:matrix(.92,.43,-.89,.45,313.2,154.7);-webkit-animation-name:ByNW-qGHkTz_Animation;animation-name:ByNW-qGHkTz_Animation;-webkit-transform-origin:50% 50%;transform-origin:50% 50%;transform-box:fill-box" fill="#02fdfa" font-size="20.54" font-family="OpenSans-SemiBold,Open Sans" font-weight="700" opacity="0"><tspan id="SJBb-9zrk6G">72</tspan></text><text style="-webkit-transform:matrix(.92,.43,-.89,.45,313.2,154.7);transform:matrix(.92,.43,-.89,.45,313.2,154.7);-webkit-animation-name:S18Wb5Gr1az_Animation;animation-name:S18Wb5Gr1az_Animation;-webkit-transform-origin:50% 50%;transform-origin:50% 50%;transform-box:fill-box" fill="#02fdfa" font-size="20.54" font-family="OpenSans-SemiBold,Open Sans" font-weight="700" opacity="0"><tspan id="H1DWbqzHkaG">91</tspan></text><text style="-webkit-transform:matrix(.92,.43,-.89,.45,312.71,154.48);transform:matrix(.92,.43,-.89,.45,312.71,154.48);-webkit-animation-name:SyuWWqGryaG_Animation;animation-name:SyuWWqGryaG_Animation;-webkit-transform-origin:50% 50%;transform-origin:50% 50%;transform-box:fill-box" fill="#02fdfa" font-size="20.54" font-family="OpenSans-SemiBold,Open Sans" font-weight="700" opacity="0"><tspan id="S1Fb-9fS16f">100</tspan></text></g></g><g id="B1qZ-czr1az"><g id="BJib-9MHJaf" fill="#02fdfa"><g data-name="21" style="-webkit-animation-name:rJnbZ5zB1az_Animation;animation-name:rJnbZ5zB1az_Animation;-webkit-transform-origin:50% 50%;transform-origin:50% 50%;transform-box:fill-box" opacity="0"><path data-name="63" d="M364.23 343.32l2.55.81-13.84 10.18-1.26-.42-1.3-.39 13.85-10.18" style="-webkit-transform:translate(24px,-203.99px);transform:translate(24px,-203.99px)"/><path data-name="62" d="M357.54 341.52l2.72.68-11.63 10.8-1.34-.35-1.37-.33 11.62-10.8" style="-webkit-transform:translate(24px,-203.99px);transform:translate(24px,-203.99px)"/><path data-name="61" d="M351 340.15l2.84.54-9.47 11.31-1.37-.3-1.42-.27 9.42-11.28" style="-webkit-transform:translate(24px,-203.99px);transform:translate(24px,-203.99px)"/><path data-name="64" d="M370.09 345.3l2.38.93-15.78 9.49-1.18-.47-1.2-.46 15.78-9.49" style="-webkit-transform:translate(24px,-203.99px);transform:translate(24px,-203.99px)"/></g><g data-name="20" style="-webkit-animation-name:HJZMbcGSkpz_Animation;animation-name:HJZMbcGSkpz_Animation;-webkit-transform-origin:50% 50%;transform-origin:50% 50%;transform-box:fill-box" opacity="0"><path data-name="60" d="M344.14 339.08l2.93.42-7.16 11.66-1.46-.22-1.47-.19 7.16-11.67" style="-webkit-transform:translate(24px,-203.99px);transform:translate(24px,-203.99px)"/><path data-name="59" d="M337.14 338.35l3 .27-4.83 11.94-1.5-.15-1.5-.12 4.82-11.94" style="-webkit-transform:translate(24px,-203.99px);transform:translate(24px,-203.99px)"/><path data-name="58" d="M329.52 337.93l3.05.12s-2.27 12.05-2.27 12.1l-1.53-.07-1.52-.05 2.27-12.1" style="-webkit-transform:translate(24px,-203.99px);transform:translate(24px,-203.99px)"/></g><g data-name="19" style="-webkit-animation-name:SySz-qfHJ6z_Animation;animation-name:SySz-qfHJ6z_Animation;-webkit-transform-origin:50% 50%;transform-origin:50% 50%;transform-box:fill-box" opacity="0"><path data-name="57\" d="M322.35 337.88h3.07s.12 12.1.13 12.14h-3.08l-.13-12.15" style="-webkit-transform:translate(24px,-203.99px);transform:translate(24px,-203.99px)"/><path data-name="56" d="M315.08 338.18l3.05-.17 2.57 12.07-1.52.07-1.52.1-2.58-12.07" style="-webkit-transform:translate(24px,-203.99px);transform:translate(24px,-203.99px)"/><path data-name="55" d="M308 338.81l3-.31 5 11.88-1.5.14c-.22 0-1.42.15-1.5.17l-5-11.88" style="-webkit-transform:translate(24px,-203.99px);transform:translate(24px,-203.99px)"/></g><g data-name="18" style="-webkit-animation-name:Sytf-9frJpG_Animation;animation-name:Sytf-9frJpG_Animation;-webkit-transform-origin:50% 50%;transform-origin:50% 50%;transform-box:fill-box" opacity="0"><path data-name="54" d="M300.62 339.84l2.93-.46 7.45 11.56-1.47.22-1.45.24-7.45-11.56" style="-webkit-transform:translate(24px,-203.99px);transform:translate(24px,-203.99px)"/><path data-name="53" d="M293.94 341.13l2.82-.59 9.71 11.15-1.42.28-1.41.31-9.7-11.15" style="-webkit-transform:translate(24px,-203.99px);transform:translate(24px,-203.99px)"/><path data-name="52" d="M287.51 342.73l2.7-.72 11.88 10.64-1.36.34-1.33.37-11.89-10.63" style="-webkit-transform:translate(24px,-203.99px);transform:translate(24px,-203.99px)"/></g><g data-name="17" style="-webkit-animation-name:HkTGb5fBy6G_Animation;animation-name:HkTGb5fBy6G_Animation;-webkit-transform-origin:50% 50%;transform-origin:50% 50%;transform-box:fill-box" opacity="0"><path data-name="51" d="M281.45 344.62l2.54-.84 13.95 10-1.29.41-1.26.43-13.94-10" style="-webkit-transform:translate(24px,-203.99px);transform:translate(24px,-203.99px)"/><path data-name="50" d="M275.4 346.94l2.35-1 16 9.26-1.19.47-1.16.49-16-9.26" style="-webkit-transform:translate(24px,-203.99px);transform:translate(24px,-203.99px)"/><path data-name="49" d="M270.22 349.37l2.15-1.07 17.78 8.46c-.1.06-.95.46-1.09.53l-1.06.54-17.78-8.46" style="-webkit-transform:translate(24px,-203.99px);transform:translate(24px,-203.99px)"/></g><g data-name="16" style="-webkit-animation-name:SJ-QZqMrJaM_Animation;animation-name:SJ-QZqMrJaM_Animation;-webkit-transform-origin:50% 50%;transform-origin:50% 50%;transform-box:fill-box" opacity="0"><path data-name="48" d="M265.46 352.07l1.93-1.16 19.42 7.57-1 .57-.95.59-19.41-7.57" style="-webkit-transform:translate(24px,-203.99px);transform:translate(24px,-203.99px)"/><path data-name="47" d="M261.33 354.93l1.69-1.24 20.85 6.62-.87.62-.83.63-20.84-6.63" style="-webkit-transform:translate(24px,-203.99px);transform:translate(24px,-203.99px)"/><path data-name="46" d="M257.55 358.2l1.43-1.33 22.15 5.54-.73.66c-.11.1-.66.63-.69.67l-22.16-5.54" style="-webkit-transform:translate(24px,-203.99px);transform:translate(24px,-203.99px)"/></g><g data-name="15" style="-webkit-animation-name:H1Sm-9GSy6f_Animation;animation-name:H1Sm-9GSy6f_Animation;-webkit-transform-origin:50% 50%;transform-origin:50% 50%;transform-box:fill-box" opacity="0"><path data-name="45" d="M254.66 361.39l1.16-1.38 23.18 4.48-.6.69c-.09.1-.53.65-.56.69l-23.17-4.48" style="-webkit-transform:translate(24px,-203.99px);transform:translate(24px,-203.99px)"/><path data-name="44" d="M252.41 364.72l.88-1.43 24 3.37-.46.71-.42.72-24-3.37" style="-webkit-transform:translate(24px,-203.99px);transform:translate(24px,-203.99px)"/><path data-name="43" d="M250.83 368.13l.6-1.47L276 368.9c0 .07-.28.63-.33.72s-.26.7-.27.74l-24.55-2.23" style="-webkit-transform:translate(24px,-203.99px);transform:translate(24px,-203.99px)"/></g><g data-name="14" style="-webkit-animation-name:SkYQZqzByTf_Animation;animation-name:SkYQZqzByTf_Animation;-webkit-transform-origin:50% 50%;transform-origin:50% 50%;transform-box:fill-box" opacity="0"><path data-name="42" d="M249.9 371.83l.28-1.48 24.91 1c0 .07-.14.64-.16.74s-.11.7-.11.74l-24.92-1" style="-webkit-transform:translate(24px,-203.99px);transform:translate(24px,-203.99px)"/><path data-name="41" d="M249.74 375.31v-1.49l25-.17v1.48l-25 .18" style="-webkit-transform:translate(24px,-203.99px);transform:translate(24px,-203.99px)"/><path data-name="40" d="M250.28 378.83l-.31-1.47 24.88-1.36c0 .07.12.64.14.74s.16.69.18.73l-24.89 1.36" style="-webkit-transform:translate(24px,-203.99px);transform:translate(24px,-203.99px)"/></g><g data-name="13" style="-webkit-animation-name:SypX-cfByTf_Animation;animation-name:SypX-cfByTf_Animation;-webkit-transform-origin:50% 50%;transform-origin:50% 50%;transform-box:fill-box" opacity="0"><path data-name="39" d="M251.51 382.26l-.61-1.46 24.53-2.51c0 .07.23.63.27.73l.33.72-24.52 2.52" style="-webkit-transform:translate(24px,-203.99px);transform:translate(24px,-203.99px)"/><path data-name="38" d="M253.56 385.84l-.91-1.42 23.89-3.72.43.71c.06.11.45.67.48.71l-23.89 3.72" style="-webkit-transform:translate(24px,-203.99px);transform:translate(24px,-203.99px)"/><path data-name="37" d="M256.16 389.07L255 387.7l23-4.81.57.69.62.68-23.06 4.81" style="-webkit-transform:translate(24px,-203.99px);transform:translate(24px,-203.99px)"/></g><g data-name="12" style="-webkit-animation-name:rJb4Z5MHypG_Animation;animation-name:rJb4Z5MHypG_Animation;-webkit-transform-origin:50% 50%;transform-origin:50% 50%;transform-box:fill-box" opacity="0"><path data-name="36" d="M259.41 392.18l-1.41-1.31 22-5.87.7.65.75.65-22 5.87" style="-webkit-transform:translate(24px,-203.99px);transform:translate(24px,-203.99px)"/><path data-name="35" d="M263.24 395.1l-1.71-1.23L282.3 387l.83.62.88.61-20.77 6.86" style="-webkit-transform:translate(24px,-203.99px);transform:translate(24px,-203.99px)"/><path data-name="34" d="M268 398l-2-1.13s19.16-7.82 19.23-7.86l1 .58 1 .56L268 398" style="-webkit-transform:translate(24px,-203.99px);transform:translate(24px,-203.99px)"/></g><g data-name="11" style="-webkit-animation-name:SySVZczBJaz_Animation;animation-name:SySVZczBJaz_Animation;-webkit-transform-origin:50% 50%;transform-origin:50% 50%;transform-box:fill-box" opacity="0"><path data-name="33" d="M272.92 400.51l-2.18-1 17.6-8.71 1.07.53 1.11.51-17.6 8.71" style="-webkit-transform:translate(24px,-203.99px);transform:translate(24px,-203.99px)"/><path data-name="32" d="M278.44 402.79l-2.37-.93 15.78-9.49 1.17.47 1.2.46-15.78 9.49" style="-webkit-transform:translate(24px,-203.99px);transform:translate(24px,-203.99px)"/><path data-name="31" d="M284.31 404.77l-2.56-.81 13.85-10.18 1.26.42 1.29.39-13.84 10.18" style="-webkit-transform:translate(24px,-203.99px);transform:translate(24px,-203.99px)"/></g><g data-name="10" style="-webkit-animation-name:SyFVZ9zSy6z_Animation;animation-name:SyFVZ9zSy6z_Animation;-webkit-transform-origin:50% 50%;transform-origin:50% 50%;transform-box:fill-box" opacity="0"><path data-name="30" d="M291 406.57l-2.71-.68 11.62-10.8 1.35.35 1.37.33-11.63 10.8" style="-webkit-transform:translate(24px,-203.99px);transform:translate(24px,-203.99px)"/><path data-name="29" d="M297.55 407.94l-2.83-.54 9.44-11.29 1.41.28 1.43.27-9.45 11.28" style="-webkit-transform:translate(24px,-203.99px);transform:translate(24px,-203.99px)"/><path data-name="28" d="M304.39 409l-2.93-.42s7.14-11.61 7.16-11.66l1.46.22 1.48.19-7.17 11.67" style="-webkit-transform:translate(24px,-203.99px);transform:translate(24px,-203.99px)"/></g><g data-name="9" style="-webkit-animation-name:rk64W9zrkaM_Animation;animation-name:rk64W9zrkaM_Animation;-webkit-transform-origin:50% 50%;transform-origin:50% 50%;transform-box:fill-box" opacity="0"><path data-name="27" d="M311.39 409.74l-3-.27 4.83-11.94 1.5.15 1.51.12-4.83 11.94" style="-webkit-transform:translate(24px,-203.99px);transform:translate(24px,-203.99px)"/><path data-name="26" d="M319 410.16l-3-.16s2.27-12.06 2.27-12.1l1.53.07 1.53.05-2.33 12.14" style="-webkit-transform:translate(24px,-203.99px);transform:translate(24px,-203.99px)"/><path data-name="25" d="M326.18 410.21h-3.07s-.12-12.1-.12-12.15h3.06l.13 12.15" style="-webkit-transform:translate(24px,-203.99px);transform:translate(24px,-203.99px)"/></g><g data-name="8" style="-webkit-animation-name:r1bHW9Mrypf_Animation;animation-name:r1bHW9Mrypf_Animation;-webkit-transform-origin:50% 50%;transform-origin:50% 50%;transform-box:fill-box" opacity="0"><path data-name="24" d="M333.45 409.91l-3.05.17-2.57-12.08 1.53-.07 1.52-.1 2.57 12.07" style="-webkit-transform:translate(24px,-203.99px);transform:translate(24px,-203.99px)"/><path data-name="23" d="M340.51 409.28l-3 .31-4.95-11.88 1.51-.14c.22 0 1.41-.15 1.49-.17l4.95 11.88" style="-webkit-transform:translate(24px,-203.99px);transform:translate(24px,-203.99px)"/><path data-name="22" d="M347.91 408.25l-2.93.46-7.44-11.56 1.47-.22 1.45-.24 7.45 11.56" style="-webkit-transform:translate(24px,-203.99px);transform:translate(24px,-203.99px)"/></g><g data-name="7" style="-webkit-animation-name:B1HSbczrJ6G_Animation;animation-name:B1HSbczrJ6G_Animation;-webkit-transform-origin:50% 50%;transform-origin:50% 50%;transform-box:fill-box" opacity="0"><path data-name="21" d="M354.59 407l-2.82.59-9.71-11.15 1.43-.28 1.4-.31 9.7 11.15" style="-webkit-transform:translate(24px,-203.99px);transform:translate(24px,-203.99px)"/><path data-name="20" d="M361 405.36l-2.69.72-11.89-10.64 1.36-.34 1.34-.37L361 405.36" style="-webkit-transform:translate(24px,-203.99px);transform:translate(24px,-203.99px)"/><path data-name="19" d="M367.09 403.47l-2.55.84-14-10 1.29-.41 1.26-.43 13.95 10" style="-webkit-transform:translate(24px,-203.99px);transform:translate(24px,-203.99px)"/></g><g data-name="6" style="-webkit-animation-name:HyYB-5GH16f_Animation;animation-name:HyYB-5GH16f_Animation;-webkit-transform-origin:50% 50%;transform-origin:50% 50%;transform-box:fill-box" opacity="0"><path data-name="18" d="M373.13 401.15l-2.35 1-16-9.26 1.19-.47 1.17-.49 16 9.26" style="-webkit-transform:translate(24px,-203.99px);transform:translate(24px,-203.99px)"/><path data-name="17" d="M378.32 398.72l-2.16 1.07-17.78-8.46 1.1-.53 1.06-.54 17.78 8.46" style="-webkit-transform:translate(24px,-203.99px);transform:translate(24px,-203.99px)"/><path data-name="16" d="M383.07 396l-1.93 1.16-19.41-7.57 1-.57 1-.59 19.34 7.57" style="-webkit-transform:translate(24px,-203.99px);transform:translate(24px,-203.99px)"/></g><g data-name="5" style="-webkit-animation-name:SypBW9GHJaf_Animation;animation-name:SypBW9GHJaf_Animation;-webkit-transform-origin:50% 50%;transform-origin:50% 50%;transform-box:fill-box" opacity="0"><path data-name="15" d="M387.2 393.16l-1.69 1.24-20.84-6.62.87-.62.82-.63 20.84 6.63" style="-webkit-transform:translate(24px,-203.99px);transform:translate(24px,-203.99px)"/><path data-name="14" d="M391 389.89l-1.42 1.33-22.16-5.54.74-.66c.1-.1.65-.63.68-.67l22.16 5.54" style="-webkit-transform:translate(24px,-203.99px);transform:translate(24px,-203.99px)"/><path data-name="13" d="M393.87 386.7l-1.16 1.38-23.17-4.48c.06-.07.53-.59.6-.69s.53-.65.56-.69l23.17 4.48" style="-webkit-transform:translate(24px,-203.99px);transform:translate(24px,-203.99px)"/></g><g data-name="4" style="-webkit-animation-name:rk-UWcGr1TG_Animation;animation-name:rk-UWcGr1TG_Animation;-webkit-transform-origin:50% 50%;transform-origin:50% 50%;transform-box:fill-box" opacity="0"><path data-name="12" d="M396.12 383.37l-.88 1.43-24-3.37.46-.71.42-.72 24 3.37" style="-webkit-transform:translate(24px,-203.99px);transform:translate(24px,-203.99px)"/><path data-name="11" d="M397.7 380l-.59 1.47-24.55-2.24.32-.73c0-.1.26-.69.27-.73L397.7 380" style="-webkit-transform:translate(24px,-203.99px);transform:translate(24px,-203.99px)"/><path data-name="10" d="M398.63 376.26l-.28 1.48-24.91-1c0-.07.14-.64.16-.74s.12-.7.12-.74l24.91 1" style="-webkit-transform:translate(24px,-203.99px);transform:translate(24px,-203.99px)"/></g><g data-name="3" style="-webkit-animation-name:S1r8-5fH1af_Animation;animation-name:S1r8-5fH1af_Animation;-webkit-transform-origin:50% 50%;transform-origin:50% 50%;transform-box:fill-box" opacity="0"><path data-name="9" d="M398.79 372.78v1.49l-25 .17v-.74-.74l25-.18" style="-webkit-transform:translate(24px,-203.99px);transform:translate(24px,-203.99px)"/><path data-name="8" d="M398.25 369.26l.32 1.47-24.89 1.36c0-.07-.11-.64-.13-.74s-.17-.69-.19-.73l24.89-1.36" style="-webkit-transform:translate(24px,-203.99px);transform:translate(24px,-203.99px)"/><path data-name="7" d="M397 365.83l.6 1.46-24.52 2.51-.28-.73c0-.11-.3-.68-.33-.72l24.53-2.52" style="-webkit-transform:translate(24px,-203.99px);transform:translate(24px,-203.99px)"/></g><g data-name="2" style="-webkit-animation-name:H1tUW9MSkTM_Animation;animation-name:H1tUW9MSkTM_Animation;-webkit-transform-origin:50% 50%;transform-origin:50% 50%;transform-box:fill-box" opacity="0"><path data-name="6" d="M395 362.25l.91 1.42-23.91 3.72c-.05-.07-.38-.62-.44-.71s-.44-.67-.48-.71l23.92-3.72" style="-webkit-transform:translate(24px,-203.99px);transform:translate(24px,-203.99px)"/><path data-name="5" d="M392.37 359l1.19 1.37-23.06 4.83-.57-.69-.62-.68 23.06-4.83" style="-webkit-transform:translate(24px,-203.99px);transform:translate(24px,-203.99px)"/><path data-name="4" d="M389.13 355.91l1.45 1.31-22 5.86c-.07-.06-.61-.57-.71-.65s-.7-.61-.75-.65l22-5.87" style="-webkit-transform:translate(24px,-203.99px);transform:translate(24px,-203.99px)"/></g><g data-name="1" style="-webkit-animation-name:HypI-qMSJ6f_Animation;animation-name:HypI-qMSJ6f_Animation;-webkit-transform-origin:50% 50%;transform-origin:50% 50%;transform-box:fill-box" opacity="0"><path data-name="3" d="M385.3 353l1.7 1.23-20.77 6.86-.83-.62c-.12-.09-.82-.58-.88-.61L385.3 353" style="-webkit-transform:translate(24px,-203.99px);transform:translate(24px,-203.99px)"/><path data-name="2" d="M380.57 350.08l2 1.13-19.23 7.86-1-.58-1-.56 19.23-7.85" style="-webkit-transform:translate(24px,-203.99px);transform:translate(24px,-203.99px)"/><path data-name="1" d="M375.61 347.58l2.18 1-17.6 8.71-1.07-.53-1.11-.51 17.6-8.71" style="-webkit-transform:translate(24px,-203.99px);transform:translate(24px,-203.99px)"/></g></g><ellipse cx="324.27" cy="374.04" rx="77.34" ry="37.53" style="-webkit-transform:translate(21.81px,-202.07px) rotate(-.34deg);transform:translate(21.81px,-202.07px) rotate(-.34deg)" fill="none" stroke="#02fdfa" stroke-miterlimit="10" stroke-width="1.5"/></g><text style="-webkit-transform:matrix(.92,.43,-.89,.45,310.08,164.28);transform:matrix(.92,.43,-.89,.45,310.08,164.28)" fill="#02fdfa" font-family="OpenSans-SemiBold,Open Sans" font-weight="700" font-size="9.52">LOADING...</text></g><path d="M183.8 446.16l-15.86-7.28c-1.07-.49-.79-1.24.9-2l.66-.27a6.63 6.63 0 0 1 4.79-.2l15.57 7.14c1.07.49 1.09 1.4-.61 2.12l-.66.28a6.66 6.66 0 0 1-4.79.21z" style="-webkit-transform:translate(24px,-203.99px);transform:translate(24px,-203.99px)" fill="#02fdfa"/><path data-name="Long_BTN" d="M183.86 446.16L168 438.88a1.05 1.05 0 0 1-.72-1.08v-11.37c1.7-.72 22.28 7.07 23.35 7.56v9.32c0 1.51.19 1.48-1.35 2.4l-.66.28a6.66 6.66 0 0 1-4.76.17z" style="-webkit-transform:translate(24px,-203.99px);transform:translate(24px,-203.99px);-webkit-animation-name:B1EPZqzSkaz_Animation;animation-name:B1EPZqzSkaz_Animation;-webkit-transform-origin:50% 50%;transform-origin:50% 50%;transform-box:fill-box" fill="url(#linear-gradient)" opacity="0"/><g style="-webkit-animation-name:SkSw-qGBypf_Animation;animation-name:SkSw-qGBypf_Animation;-webkit-transform-origin:50% 50%;transform-origin:50% 50%;transform-box:fill-box" opacity="0"><path d="M442.83 317.57c-.09 8.08-12.45 13.8-28.27 13.8-14.83 0-29.56-5.71-29.56-13.77 0-4.5 0-34.32.29-39.83 5.23-4.67 19.59-7.46 28.84-7.46 10.1 0 23.47 3.12 28.39 8.53.08 5.75.4 30.61.31 38.73z" style="-webkit-transform:translate(24px,-203.99px);transform:translate(24px,-203.99px)" fill="url(#linear-gradient-2)" visibility="hidden"/><path d="M262.25 459.19c0 6.1-9.24 9.21-20.9 9.21-10.94 0-20.37-3.51-20.87-10-.34-4.33 0-36.26.21-41.58 3.86-4.5 13.7-7.2 20.52-7.2 7.45 0 17.31 3 20.94 8.23.06 5.52.1 33.5.1 41.34z" style="-webkit-transform:translate(24px,-203.99px);transform:translate(24px,-203.99px)" fill="url(#linear-gradient-3)"/><path d="M161.66 414.81c0 6.1-9.24 9.21-20.9 9.21-10.94 0-20.37-3.51-20.87-10-.34-4.33 0-36.26.21-41.58 3.86-4.5 13.7-7.2 20.52-7.2 7.45 0 17.31 3 20.94 8.23.06 5.53.1 33.53.1 41.34z" style="-webkit-transform:translate(24px,-203.99px);transform:translate(24px,-203.99px)" fill="url(#linear-gradient-4)"/></g><g style="-webkit-animation-name:ryKwZ5GS1aM_Animation;animation-name:ryKwZ5GS1aM_Animation;-webkit-transform-origin:50% 50%;transform-origin:50% 50%;transform-box:fill-box" opacity=".7"><g id="Sy9Db5fHJaM"><ellipse cx="140.79" cy="414.92" rx="8.62" ry="20.24" style="-webkit-transform:matrix(.01,-1,1,.01,-251.35,348.11);transform:matrix(.01,-1,1,.01,-251.35,348.11)" fill="#02fdfa" opacity=".5"/><ellipse cx="140.79" cy="414.92" rx="8.62" ry="20.24" style="-webkit-transform:matrix(.01,-1,1,.01,-251.35,348.11);transform:matrix(.01,-1,1,.01,-251.35,348.11)" fill="none" stroke="#02fdfa" stroke-miterlimit="10" stroke-width="1.5"/></g><g id="HypPbczS16f"><ellipse cx="241.29" cy="459.23" rx="8.62" ry="20.24" style="-webkit-transform:translate(-196.02px,492.54px) rotate(-89.5deg);transform:translate(-196.02px,492.54px) rotate(-89.5deg)" fill="#02fdfa" opacity=".5"/><ellipse cx="241.28" cy="459.23" rx="8.62" ry="20.24" style="-webkit-transform:translate(-196.03px,492.53px) rotate(-89.5deg);transform:translate(-196.03px,492.53px) rotate(-89.5deg)" fill="none" stroke="#02fdfa" stroke-miterlimit="10" stroke-width="1.5"/></g></g></g></g><script>(function(){var a=document.querySelector(&apos;#HJbcMByaG&apos;),b=a.querySelectorAll(&apos;style&apos;),c=function(d){b.forEach(function(f){var g=f.textContent;g&amp;&amp;(f.textContent=g.replace(/transform-box:[^;\r\n]*/gi,&apos;transform-box: &apos;+d))})};c(&apos;initial&apos;),window.requestAnimationFrame(function(){return c(&apos;fill-box&apos;)})})();</script></svg>