<?xml version="1.0" encoding="utf-8"?>
<!-- Generator: Adobe Illustrator 19.0.0, SVG Export Plug-In . SVG Version: 6.00 Build 0)  -->
<svg version="1.1" xmlns="http://www.w3.org/2000/svg" xmlns:xlink="http://www.w3.org/1999/xlink" x="0px" y="0px"
	 viewBox="484 27.3 1920 928.8" style="enable-background:new 484 27.3 1920 928.8;" xml:space="preserve">
<style type="text/css">
	.st0{fill:#FDFDFD;}
</style>
<g id="pixels">
	<g>
		<rect x="484" y="926" class="st0" width="30" height="30"/>
		<rect x="1654" y="386" class="st0" width="30" height="30"/>
		<rect x="1684" y="356" class="st0" width="30" height="30"/>
		<rect x="874" y="746" class="st0" width="30" height="30"/>
		<rect x="784" y="776" class="st0" width="30" height="30"/>
		<polygon class="st0" points="1864,296 1894,296 1894,266 1863.9,266 1863.9,296 1834,296 1834,326 1864,326 		"/>
		<polygon class="st0" points="933.9,716 904,716 904,724 904,746 933.9,746 		"/>
		<rect x="1024" y="656" class="st0" width="30" height="30"/>
		<polygon class="st0" points="2403.9,27.3 2374,27.3 2374,57 2404,57 		"/>
		<polygon class="st0" points="2404,57 2404,87 2404,87 		"/>
	</g>
</g>
<g id="pixels_x5F_new">
	<path class="st0" d="M2374,267.1V237h-30l0-30.4h30.1l0,30.4h30v-60h-30v-30.1h30v-42.3l0-17.6h-30V57h-30v30h-30v30h30v30h-30v-30
		h-30v29.6h-30V117h-30v60h-30v29.6h-30.3V177h30.2v-30H2134v30h-30v29.6h30V237h29.6v30.1l-29.6,0V237h-30v-30.4h-30V237h-30v-30
		h-30v60l30,0v29h-30l0-29h-30l0-31h-30v31h30v29h-30l0,30.5h-30V296h-30v30h-30v30h-30v-30h-60v30h30v30h-30v-30h-30v30h-30v30h-30
		v30h-30v-30h-30v30.5h-30V416h-30v60h-30v-30h-60v30h30v30h30V536H1504v-30h-30v-30h-30v30h-30v30h30v30h-30v-30h-30v30h-30v30h-30
		v-30h30v-30h30v-30h-30.1v30H1294v90.3h-30V596h-30v30h-30v30.3h-30V596h-30v30h-30v30h30v30h-90v30h-30v-30h-30v30h-30v30h-30v30
		h-30v30h-30v-30h-30v30h-30v30h-30v-30h-29.9v30.1H784l0,29.9h-29.9v0H724v-30h-30v60.1h-30v-30h-30V836h-30v30h-30v30h30v30h-30
		v-30h-60v30h30v30h1859.9V267.1H2374z M724.1,926.2H694v-30.1h30.1V926.2z M874,896h-30.1V866H874V896z M964,866.1h-30.1v-30.1H964
		V866.1z M994.1,806.1H964V776h30.1V806.1z M1114.1,746h-30V776H1054V746h30v-30.1h30.1V746z M1174.1,806h-30.1V776h30.1V806z
		 M1264,685.7h-30v-29.5h30.1L1264,685.7z M1324.1,656h-30.1v-30.1h30.1V656z M1384.1,715.7H1354v-30.1h30.1V715.7z M1474,596.1
		h-30.1V566h30.1V596.1z M1624.1,506H1594V476h30.1V506z M1714.1,566.1H1684V536h30.1V566.1z M1803.9,476.1h-30.1v-30.1H1744V416
		l29.8,0v30.1h30.1V476.1z M1864.1,416H1834V386h30.1V416z M1924.1,386.1H1894V356h30.1V386.1z M1984.1,416H1954V386h30.1V416z
		 M2074.1,356.1H2044v-30.1h30V296h30.1v30.1h-30V356.1z M2134.1,416h-30.1V386h30.1V416z M2284,177h30v29.6h-30V177z M2284.1,296.1
		H2254V266h30.1V296.1z M2344.1,356.1H2314v-30.1h30.1V356.1z"/>
</g>
</svg>
